<?xml version="1.0" encoding="UTF-8" standalone="no"?>
<!DOCTYPE svg PUBLIC "-//W3C//DTD SVG 1.1//EN" "http://www.w3.org/Graphics/SVG/1.1/DTD/svg11.dtd">
<svg width="100%" height="100%" viewBox="0 0 495 97" version="1.1" xmlns="http://www.w3.org/2000/svg" xmlns:xlink="http://www.w3.org/1999/xlink" xml:space="preserve" xmlns:serif="http://www.serif.com/" style="fill-rule:evenodd;clip-rule:evenodd;stroke-linejoin:round;stroke-miterlimit:1.41421;">
    <g transform="matrix(1,0,0,1,-44.3472,-43.5749)">
        <g transform="matrix(1.58712,0,0,1.58712,0,0)">
            <g transform="matrix(0.461496,0,0,0.461496,-53.121,-39.627)">
                <g transform="matrix(0.49894,0,0,0.49894,185.056,115.425)">
                    <g transform="matrix(-5.55112e-17,0.630074,-0.630074,5.55112e-17,325.119,99.8005)">
                        <circle cx="201.784" cy="390.829" r="155.085" style="fill:rgb(254,195,9);"/>
                    </g>
                    <g transform="matrix(0.445529,0.445529,-0.445529,0.445529,164.973,-34.1977)">
                        <path d="M190.416,218.727C185.249,218.905 180.232,216.977 176.514,213.385C172.796,209.793 170.697,204.845 170.696,199.676C170.687,199.674 170.687,199.673 170.687,199.671L160.687,64.99C160.687,47.366 172.995,33.058 190.618,33.058L202.245,33.058C219.869,33.058 232.177,47.366 232.177,64.99L222.177,199.671C222.177,199.674 222.177,199.676 222.177,199.679C222.176,204.852 220.074,209.804 216.352,213.397C212.629,216.991 207.607,218.918 202.437,218.738C200.621,218.659 198.803,218.62 196.984,218.611C196.616,218.611 196.248,218.611 195.88,218.611C194.057,218.62 192.235,218.658 190.416,218.727ZM196.432,50.775C203.614,50.775 209.445,56.606 209.445,63.788C209.445,70.97 203.614,76.8 196.432,76.8C189.25,76.8 183.419,70.97 183.419,63.788C183.419,56.606 189.25,50.775 196.432,50.775Z" style="fill:rgb(254,195,9);"/>
                    </g>
                </g>
                <g transform="matrix(0.456779,0,0,0.456779,252.916,-77.0738)">
                    <g transform="matrix(129.717,0,0,129.717,72.9149,687.992)">
                        <path d="M0.073,-0.627C0.077,-0.63 0.082,-0.632 0.087,-0.634C0.092,-0.635 0.096,-0.635 0.101,-0.635L0.176,-0.635C0.182,-0.635 0.187,-0.634 0.192,-0.632C0.196,-0.63 0.2,-0.627 0.203,-0.623C0.206,-0.619 0.208,-0.615 0.21,-0.611C0.212,-0.606 0.213,-0.601 0.215,-0.596L0.226,-0.552C0.231,-0.562 0.238,-0.573 0.247,-0.584C0.256,-0.595 0.268,-0.605 0.283,-0.614C0.297,-0.623 0.314,-0.63 0.334,-0.636C0.354,-0.642 0.377,-0.645 0.404,-0.645C0.425,-0.645 0.444,-0.643 0.461,-0.639C0.478,-0.635 0.494,-0.628 0.508,-0.62C0.522,-0.612 0.535,-0.602 0.547,-0.59C0.558,-0.578 0.569,-0.565 0.58,-0.55C0.586,-0.56 0.595,-0.571 0.608,-0.582C0.62,-0.593 0.635,-0.604 0.653,-0.613C0.67,-0.622 0.689,-0.63 0.711,-0.636C0.732,-0.642 0.755,-0.645 0.779,-0.645C0.817,-0.645 0.85,-0.638 0.878,-0.623C0.906,-0.608 0.93,-0.588 0.949,-0.563C0.968,-0.538 0.982,-0.508 0.991,-0.474C1,-0.44 1.005,-0.404 1.005,-0.366L1.005,-0.039C1.005,-0.026 1.002,-0.016 0.997,-0.01C0.991,-0.003 0.983,0 0.971,0L0.855,0C0.841,0 0.831,-0.002 0.826,-0.007C0.82,-0.012 0.818,-0.022 0.818,-0.036L0.818,-0.366C0.818,-0.38 0.815,-0.394 0.811,-0.406C0.806,-0.418 0.8,-0.429 0.792,-0.438C0.784,-0.447 0.774,-0.455 0.763,-0.46C0.751,-0.465 0.739,-0.468 0.725,-0.468C0.712,-0.468 0.7,-0.465 0.689,-0.46C0.677,-0.455 0.667,-0.448 0.659,-0.439C0.65,-0.43 0.643,-0.42 0.638,-0.407C0.633,-0.395 0.63,-0.381 0.63,-0.366L0.63,-0.039C0.63,-0.026 0.627,-0.016 0.622,-0.01C0.616,-0.003 0.608,0 0.596,0L0.585,0L0.581,0L0.48,0C0.466,0 0.456,-0.002 0.451,-0.007C0.445,-0.012 0.443,-0.022 0.443,-0.036L0.443,-0.366C0.443,-0.38 0.44,-0.394 0.436,-0.406C0.432,-0.418 0.426,-0.429 0.418,-0.438C0.41,-0.447 0.401,-0.455 0.39,-0.46C0.379,-0.465 0.366,-0.468 0.352,-0.468C0.34,-0.468 0.328,-0.465 0.317,-0.46C0.305,-0.455 0.295,-0.449 0.286,-0.44C0.277,-0.431 0.269,-0.42 0.263,-0.408C0.257,-0.396 0.253,-0.382 0.252,-0.367L0.252,-0.037C0.252,-0.031 0.251,-0.026 0.249,-0.02C0.247,-0.014 0.243,-0.01 0.239,-0.007C0.235,-0.004 0.231,-0.003 0.227,-0.002C0.223,-0.001 0.219,0 0.214,0L0.101,0C0.086,0 0.076,-0.004 0.07,-0.011C0.063,-0.018 0.06,-0.027 0.06,-0.039L0.06,-0.598C0.06,-0.604 0.061,-0.61 0.064,-0.616C0.067,-0.621 0.071,-0.625 0.076,-0.628L0.073,-0.627Z" style="fill:rgb(67,67,67);fill-rule:nonzero;"/>
                    </g>
                    <g transform="matrix(129.717,0,0,129.717,207.886,687.992)">
                        <path d="M0.714,-0.037C0.714,-0.031 0.713,-0.026 0.711,-0.021C0.709,-0.016 0.705,-0.012 0.701,-0.009C0.697,-0.005 0.693,-0.003 0.688,-0.002C0.683,-0.001 0.678,0 0.675,0L0.576,0C0.569,0 0.563,-0.001 0.559,-0.003C0.555,-0.005 0.551,-0.007 0.549,-0.011C0.546,-0.014 0.544,-0.018 0.542,-0.023C0.54,-0.028 0.538,-0.033 0.536,-0.039L0.53,-0.061C0.521,-0.052 0.51,-0.043 0.499,-0.035C0.487,-0.026 0.475,-0.018 0.461,-0.011C0.447,-0.004 0.432,0.001 0.416,0.005C0.4,0.009 0.384,0.012 0.367,0.012C0.337,0.012 0.308,0.008 0.28,0C0.252,-0.008 0.226,-0.019 0.202,-0.033C0.178,-0.047 0.156,-0.064 0.136,-0.084C0.116,-0.104 0.099,-0.126 0.085,-0.15C0.071,-0.174 0.06,-0.201 0.053,-0.229C0.045,-0.257 0.041,-0.286 0.041,-0.317C0.041,-0.363 0.05,-0.406 0.067,-0.446C0.084,-0.486 0.107,-0.521 0.136,-0.55C0.165,-0.58 0.2,-0.603 0.24,-0.62C0.279,-0.637 0.322,-0.645 0.367,-0.645C0.388,-0.645 0.407,-0.643 0.425,-0.638C0.443,-0.633 0.459,-0.627 0.474,-0.619C0.489,-0.611 0.502,-0.601 0.514,-0.59C0.526,-0.579 0.537,-0.567 0.546,-0.554L0.56,-0.6C0.563,-0.608 0.566,-0.615 0.568,-0.62C0.57,-0.625 0.573,-0.629 0.575,-0.631C0.578,-0.634 0.581,-0.635 0.585,-0.636C0.588,-0.637 0.593,-0.638 0.6,-0.638L0.675,-0.638C0.678,-0.638 0.683,-0.637 0.688,-0.636C0.693,-0.635 0.697,-0.633 0.701,-0.629C0.705,-0.625 0.709,-0.621 0.711,-0.617C0.713,-0.612 0.714,-0.607 0.714,-0.601L0.714,-0.037ZM0.221,-0.317C0.221,-0.295 0.224,-0.274 0.231,-0.255C0.238,-0.236 0.248,-0.22 0.261,-0.206C0.273,-0.192 0.288,-0.18 0.306,-0.172C0.324,-0.164 0.344,-0.16 0.366,-0.16C0.388,-0.16 0.409,-0.164 0.428,-0.172C0.447,-0.18 0.464,-0.192 0.478,-0.206C0.492,-0.22 0.503,-0.236 0.511,-0.255C0.519,-0.274 0.523,-0.295 0.523,-0.317C0.523,-0.338 0.519,-0.359 0.511,-0.378C0.503,-0.397 0.492,-0.414 0.478,-0.429C0.464,-0.444 0.447,-0.455 0.428,-0.464C0.409,-0.472 0.388,-0.476 0.366,-0.477C0.344,-0.476 0.324,-0.472 0.306,-0.464C0.288,-0.455 0.273,-0.444 0.261,-0.429C0.248,-0.414 0.238,-0.397 0.231,-0.378C0.224,-0.359 0.221,-0.338 0.221,-0.317Z" style="fill:rgb(67,67,67);fill-rule:nonzero;"/>
                    </g>
                    <g transform="matrix(129.717,0,0,129.717,304.979,687.992)">
                        <path d="M0.06,-0.598C0.06,-0.604 0.061,-0.61 0.064,-0.615C0.066,-0.619 0.069,-0.623 0.073,-0.626C0.077,-0.629 0.081,-0.631 0.086,-0.633C0.091,-0.634 0.095,-0.635 0.1,-0.635L0.176,-0.635C0.184,-0.635 0.191,-0.632 0.196,-0.628C0.201,-0.623 0.205,-0.616 0.208,-0.609C0.212,-0.601 0.215,-0.592 0.218,-0.583C0.22,-0.574 0.223,-0.565 0.227,-0.556C0.237,-0.567 0.247,-0.578 0.257,-0.589C0.267,-0.599 0.277,-0.609 0.289,-0.617C0.3,-0.625 0.312,-0.632 0.326,-0.637C0.339,-0.642 0.355,-0.645 0.372,-0.645C0.39,-0.645 0.406,-0.644 0.42,-0.641C0.434,-0.638 0.448,-0.634 0.461,-0.629C0.473,-0.624 0.486,-0.618 0.498,-0.61C0.511,-0.602 0.524,-0.592 0.539,-0.582C0.553,-0.573 0.561,-0.563 0.561,-0.552C0.561,-0.545 0.558,-0.536 0.552,-0.527L0.507,-0.449C0.498,-0.436 0.486,-0.43 0.473,-0.43C0.466,-0.43 0.459,-0.431 0.451,-0.435C0.436,-0.449 0.422,-0.459 0.407,-0.466C0.392,-0.473 0.375,-0.476 0.356,-0.477C0.343,-0.476 0.332,-0.475 0.322,-0.471C0.312,-0.467 0.303,-0.462 0.295,-0.456C0.287,-0.449 0.28,-0.441 0.273,-0.432C0.266,-0.422 0.259,-0.412 0.252,-0.401L0.252,-0.039C0.252,-0.026 0.248,-0.016 0.242,-0.01C0.236,-0.003 0.226,0 0.212,0L0.099,0C0.073,0 0.06,-0.013 0.06,-0.039L0.06,-0.598Z" style="fill:rgb(67,67,67);fill-rule:nonzero;"/>
                    </g>
                    <g transform="matrix(129.717,0,0,129.717,376.388,687.992)">
                        <path d="M0.06,-0.786C0.06,-0.791 0.06,-0.796 0.061,-0.801C0.061,-0.806 0.062,-0.81 0.065,-0.813C0.067,-0.816 0.071,-0.819 0.077,-0.821C0.082,-0.823 0.089,-0.824 0.099,-0.824L0.219,-0.824C0.225,-0.824 0.23,-0.822 0.234,-0.82C0.238,-0.818 0.242,-0.815 0.244,-0.812C0.247,-0.809 0.248,-0.805 0.249,-0.801C0.25,-0.797 0.251,-0.794 0.251,-0.791L0.251,-0.421L0.431,-0.621C0.439,-0.63 0.45,-0.635 0.462,-0.635L0.615,-0.635C0.633,-0.635 0.643,-0.628 0.643,-0.614C0.643,-0.61 0.642,-0.607 0.641,-0.605C0.64,-0.602 0.637,-0.599 0.634,-0.595L0.428,-0.378L0.687,-0.046L0.686,-0.046C0.69,-0.041 0.693,-0.037 0.695,-0.032C0.697,-0.028 0.698,-0.024 0.698,-0.02C0.698,-0.012 0.695,-0.007 0.691,-0.004C0.687,-0.001 0.681,0 0.673,0L0.504,0C0.498,0 0.493,-0.002 0.488,-0.007C0.483,-0.011 0.477,-0.017 0.471,-0.026L0.308,-0.258L0.252,-0.2L0.252,-0.039C0.252,-0.036 0.252,-0.032 0.251,-0.028C0.25,-0.024 0.248,-0.019 0.246,-0.015C0.243,-0.011 0.24,-0.008 0.236,-0.005C0.231,-0.002 0.226,0 0.219,0L0.093,0C0.087,0 0.082,-0.002 0.078,-0.005C0.073,-0.008 0.07,-0.012 0.067,-0.016C0.065,-0.02 0.063,-0.023 0.062,-0.027C0.061,-0.03 0.06,-0.032 0.06,-0.033L0.06,-0.786Z" style="fill:rgb(67,67,67);fill-rule:nonzero;"/>
                    </g>
                    <g transform="matrix(129.717,0,0,129.717,502.214,687.992)">
                        <path d="M0.238,-0.039C0.235,-0.032 0.232,-0.027 0.23,-0.022C0.228,-0.017 0.226,-0.013 0.223,-0.01C0.221,-0.007 0.218,-0.004 0.214,-0.003C0.21,-0.001 0.205,0 0.199,0L0.1,0C0.073,0 0.06,-0.013 0.06,-0.039L0.06,-0.786C0.06,-0.791 0.061,-0.796 0.063,-0.801C0.065,-0.806 0.068,-0.81 0.072,-0.813C0.075,-0.816 0.079,-0.819 0.084,-0.821C0.088,-0.823 0.093,-0.824 0.097,-0.824L0.211,-0.824C0.223,-0.824 0.233,-0.82 0.241,-0.813C0.248,-0.805 0.252,-0.796 0.252,-0.786L0.252,-0.578C0.261,-0.588 0.271,-0.597 0.282,-0.605C0.292,-0.613 0.304,-0.62 0.316,-0.626C0.329,-0.632 0.343,-0.637 0.358,-0.64C0.373,-0.643 0.389,-0.645 0.408,-0.645C0.453,-0.645 0.495,-0.637 0.533,-0.62C0.571,-0.603 0.604,-0.58 0.631,-0.55C0.659,-0.521 0.68,-0.486 0.696,-0.446C0.711,-0.406 0.719,-0.363 0.719,-0.317C0.719,-0.271 0.711,-0.228 0.696,-0.188C0.68,-0.148 0.659,-0.113 0.631,-0.084C0.604,-0.054 0.571,-0.031 0.533,-0.014C0.495,0.003 0.453,0.012 0.408,0.012C0.391,0.012 0.374,0.009 0.359,0.005C0.343,0.001 0.329,-0.005 0.315,-0.012C0.301,-0.019 0.289,-0.027 0.277,-0.036C0.266,-0.045 0.256,-0.054 0.247,-0.063L0.238,-0.039ZM0.539,-0.317C0.539,-0.338 0.536,-0.359 0.529,-0.378C0.522,-0.397 0.512,-0.414 0.5,-0.429C0.487,-0.444 0.472,-0.455 0.454,-0.464C0.436,-0.472 0.417,-0.476 0.395,-0.477C0.373,-0.476 0.352,-0.472 0.333,-0.464C0.314,-0.455 0.297,-0.444 0.283,-0.429C0.269,-0.414 0.258,-0.397 0.25,-0.378C0.242,-0.359 0.238,-0.338 0.238,-0.317L0.238,-0.31C0.239,-0.289 0.243,-0.269 0.252,-0.251C0.26,-0.233 0.272,-0.217 0.286,-0.203C0.3,-0.19 0.316,-0.179 0.335,-0.172C0.353,-0.164 0.373,-0.16 0.395,-0.16C0.417,-0.16 0.436,-0.164 0.454,-0.172C0.472,-0.18 0.487,-0.192 0.5,-0.206C0.512,-0.22 0.522,-0.236 0.529,-0.255C0.536,-0.274 0.539,-0.295 0.539,-0.317Z" style="fill:rgb(67,67,67);fill-rule:nonzero;"/>
                    </g>
                    <g transform="matrix(129.717,0,0,129.717,597.556,687.992)">
                        <path d="M0.592,-0.076C0.563,-0.049 0.53,-0.028 0.493,-0.013C0.456,0.002 0.418,0.01 0.377,0.01C0.331,0.01 0.288,0.002 0.247,-0.015C0.206,-0.032 0.171,-0.055 0.14,-0.084C0.109,-0.114 0.085,-0.149 0.067,-0.189C0.049,-0.229 0.04,-0.272 0.04,-0.319C0.04,-0.348 0.044,-0.377 0.051,-0.404C0.058,-0.432 0.068,-0.458 0.081,-0.482C0.094,-0.505 0.11,-0.528 0.129,-0.548C0.148,-0.568 0.169,-0.585 0.193,-0.6C0.216,-0.614 0.241,-0.625 0.269,-0.633C0.296,-0.641 0.325,-0.645 0.355,-0.645C0.383,-0.645 0.409,-0.641 0.436,-0.634C0.462,-0.627 0.486,-0.616 0.509,-0.603C0.532,-0.59 0.553,-0.574 0.572,-0.555C0.591,-0.536 0.607,-0.516 0.621,-0.494C0.634,-0.472 0.645,-0.448 0.652,-0.423C0.66,-0.398 0.664,-0.372 0.664,-0.345C0.664,-0.328 0.663,-0.314 0.663,-0.303C0.662,-0.292 0.66,-0.283 0.655,-0.276C0.65,-0.27 0.643,-0.265 0.632,-0.263C0.621,-0.26 0.605,-0.259 0.584,-0.259L0.224,-0.259C0.227,-0.238 0.234,-0.22 0.244,-0.206C0.254,-0.191 0.266,-0.18 0.28,-0.171C0.293,-0.163 0.307,-0.157 0.322,-0.153C0.337,-0.149 0.351,-0.148 0.365,-0.148C0.377,-0.148 0.389,-0.149 0.402,-0.151C0.414,-0.154 0.426,-0.157 0.438,-0.161C0.45,-0.165 0.461,-0.17 0.471,-0.176C0.481,-0.181 0.489,-0.187 0.495,-0.193C0.5,-0.197 0.504,-0.201 0.508,-0.203C0.512,-0.205 0.516,-0.206 0.521,-0.206C0.525,-0.206 0.529,-0.205 0.534,-0.202C0.538,-0.199 0.543,-0.194 0.549,-0.189L0.602,-0.129C0.606,-0.124 0.608,-0.12 0.609,-0.117C0.61,-0.113 0.611,-0.11 0.611,-0.106C0.611,-0.099 0.609,-0.094 0.605,-0.089C0.601,-0.084 0.597,-0.08 0.592,-0.076ZM0.352,-0.493C0.339,-0.493 0.326,-0.49 0.314,-0.485C0.302,-0.48 0.29,-0.473 0.28,-0.464C0.269,-0.455 0.259,-0.446 0.251,-0.435C0.242,-0.424 0.235,-0.412 0.23,-0.401L0.486,-0.401C0.478,-0.414 0.471,-0.426 0.463,-0.437C0.455,-0.448 0.445,-0.458 0.435,-0.466C0.424,-0.474 0.412,-0.481 0.399,-0.486C0.385,-0.49 0.37,-0.493 0.352,-0.493Z" style="fill:rgb(67,67,67);fill-rule:nonzero;"/>
                    </g>
                    <g transform="matrix(129.717,0,0,129.717,686.153,687.992)">
                        <path d="M0.06,-0.598C0.06,-0.604 0.061,-0.61 0.064,-0.615C0.066,-0.619 0.069,-0.623 0.073,-0.626C0.077,-0.629 0.081,-0.631 0.086,-0.633C0.091,-0.634 0.095,-0.635 0.1,-0.635L0.176,-0.635C0.184,-0.635 0.191,-0.632 0.196,-0.628C0.201,-0.623 0.205,-0.616 0.208,-0.609C0.212,-0.601 0.215,-0.592 0.218,-0.583C0.22,-0.574 0.223,-0.565 0.227,-0.556C0.237,-0.567 0.247,-0.578 0.257,-0.589C0.267,-0.599 0.277,-0.609 0.289,-0.617C0.3,-0.625 0.312,-0.632 0.326,-0.637C0.339,-0.642 0.355,-0.645 0.372,-0.645C0.39,-0.645 0.406,-0.644 0.42,-0.641C0.434,-0.638 0.448,-0.634 0.461,-0.629C0.473,-0.624 0.486,-0.618 0.498,-0.61C0.511,-0.602 0.524,-0.592 0.539,-0.582C0.553,-0.573 0.561,-0.563 0.561,-0.552C0.561,-0.545 0.558,-0.536 0.552,-0.527L0.507,-0.449C0.498,-0.436 0.486,-0.43 0.473,-0.43C0.466,-0.43 0.459,-0.431 0.451,-0.435C0.436,-0.449 0.422,-0.459 0.407,-0.466C0.392,-0.473 0.375,-0.476 0.356,-0.477C0.343,-0.476 0.332,-0.475 0.322,-0.471C0.312,-0.467 0.303,-0.462 0.295,-0.456C0.287,-0.449 0.28,-0.441 0.273,-0.432C0.266,-0.422 0.259,-0.412 0.252,-0.401L0.252,-0.039C0.252,-0.026 0.248,-0.016 0.242,-0.01C0.236,-0.003 0.226,0 0.212,0L0.099,0C0.073,0 0.06,-0.013 0.06,-0.039L0.06,-0.598Z" style="fill:rgb(67,67,67);fill-rule:nonzero;"/>
                    </g>
                    <g transform="matrix(129.717,0,0,129.717,757.562,687.992)">
                        <path d="M0.06,-0.598C0.06,-0.604 0.061,-0.61 0.064,-0.615C0.066,-0.619 0.069,-0.623 0.073,-0.626C0.077,-0.629 0.081,-0.631 0.086,-0.633C0.091,-0.634 0.095,-0.635 0.1,-0.635L0.176,-0.635C0.184,-0.635 0.191,-0.632 0.196,-0.628C0.201,-0.623 0.205,-0.616 0.208,-0.609C0.212,-0.601 0.215,-0.592 0.218,-0.583C0.22,-0.574 0.223,-0.565 0.227,-0.556C0.237,-0.567 0.247,-0.578 0.257,-0.589C0.267,-0.599 0.277,-0.609 0.289,-0.617C0.3,-0.625 0.312,-0.632 0.326,-0.637C0.339,-0.642 0.355,-0.645 0.372,-0.645C0.39,-0.645 0.406,-0.644 0.42,-0.641C0.434,-0.638 0.448,-0.634 0.461,-0.629C0.473,-0.624 0.486,-0.618 0.498,-0.61C0.511,-0.602 0.524,-0.592 0.539,-0.582C0.553,-0.573 0.561,-0.563 0.561,-0.552C0.561,-0.545 0.558,-0.536 0.552,-0.527L0.507,-0.449C0.498,-0.436 0.486,-0.43 0.473,-0.43C0.466,-0.43 0.459,-0.431 0.451,-0.435C0.436,-0.449 0.422,-0.459 0.407,-0.466C0.392,-0.473 0.375,-0.476 0.356,-0.477C0.343,-0.476 0.332,-0.475 0.322,-0.471C0.312,-0.467 0.303,-0.462 0.295,-0.456C0.287,-0.449 0.28,-0.441 0.273,-0.432C0.266,-0.422 0.259,-0.412 0.252,-0.401L0.252,-0.039C0.252,-0.026 0.248,-0.016 0.242,-0.01C0.236,-0.003 0.226,0 0.212,0L0.099,0C0.073,0 0.06,-0.013 0.06,-0.039L0.06,-0.598Z" style="fill:rgb(67,67,67);fill-rule:nonzero;"/>
                    </g>
                    <g transform="matrix(129.717,0,0,129.717,828.972,687.992)">
                        <path d="M0.022,-0.587C0.016,-0.6 0.016,-0.612 0.021,-0.621C0.026,-0.631 0.038,-0.636 0.056,-0.636L0.179,-0.636C0.187,-0.636 0.194,-0.633 0.2,-0.628C0.205,-0.623 0.209,-0.616 0.212,-0.609L0.353,-0.206L0.492,-0.609C0.495,-0.619 0.5,-0.626 0.506,-0.63C0.511,-0.634 0.519,-0.636 0.529,-0.636L0.658,-0.636C0.667,-0.636 0.674,-0.634 0.68,-0.632C0.685,-0.629 0.689,-0.626 0.691,-0.622C0.693,-0.618 0.694,-0.613 0.693,-0.608C0.692,-0.603 0.691,-0.598 0.689,-0.593C0.676,-0.561 0.663,-0.527 0.648,-0.49C0.632,-0.453 0.617,-0.414 0.601,-0.374C0.585,-0.334 0.568,-0.293 0.552,-0.251C0.535,-0.21 0.519,-0.169 0.503,-0.129C0.487,-0.089 0.472,-0.051 0.457,-0.014C0.442,0.023 0.429,0.057 0.417,0.088C0.405,0.119 0.394,0.146 0.385,0.169C0.376,0.192 0.369,0.21 0.365,0.223L0.366,0.221C0.364,0.23 0.36,0.237 0.354,0.242C0.347,0.248 0.34,0.251 0.332,0.251L0.216,0.251C0.201,0.251 0.191,0.248 0.185,0.242C0.18,0.236 0.177,0.227 0.177,0.216C0.177,0.212 0.178,0.208 0.179,0.206C0.18,0.204 0.181,0.202 0.182,0.202L0.26,-0.003L0.022,-0.587Z" style="fill:rgb(67,67,67);fill-rule:nonzero;"/>
                    </g>
                </g>
                <g transform="matrix(1.26279,0,0,1.26279,122.163,67.0232)">
                    <g transform="matrix(19.6254,0,0,19.6254,132.135,155.858)">
                        <path d="M0.113,-0.633C0.113,-0.663 0.117,-0.691 0.126,-0.719C0.135,-0.746 0.148,-0.771 0.166,-0.792C0.183,-0.813 0.204,-0.829 0.229,-0.842C0.254,-0.854 0.283,-0.861 0.315,-0.861L0.32,-0.861C0.33,-0.861 0.337,-0.858 0.343,-0.852C0.348,-0.846 0.351,-0.838 0.351,-0.828L0.351,-0.759C0.351,-0.749 0.348,-0.741 0.343,-0.735C0.338,-0.728 0.331,-0.725 0.322,-0.725C0.317,-0.725 0.31,-0.723 0.303,-0.721C0.295,-0.718 0.288,-0.714 0.281,-0.709C0.274,-0.704 0.268,-0.697 0.263,-0.689C0.258,-0.68 0.255,-0.67 0.255,-0.659L0.255,-0.578L0.328,-0.578C0.337,-0.578 0.345,-0.576 0.35,-0.571C0.355,-0.566 0.358,-0.557 0.358,-0.546L0.358,-0.484C0.358,-0.472 0.355,-0.464 0.35,-0.458C0.345,-0.452 0.337,-0.449 0.328,-0.449L0.255,-0.449L0.255,-0.033C0.255,-0.022 0.252,-0.014 0.245,-0.008C0.238,-0.003 0.23,0 0.222,0L0.144,0C0.134,0 0.126,-0.003 0.121,-0.009C0.115,-0.015 0.113,-0.023 0.113,-0.033L0.113,-0.449L0.063,-0.449C0.053,-0.449 0.046,-0.452 0.04,-0.458C0.034,-0.464 0.031,-0.472 0.031,-0.484L0.031,-0.546C0.031,-0.557 0.034,-0.566 0.04,-0.571C0.046,-0.576 0.053,-0.578 0.063,-0.578L0.113,-0.578L0.113,-0.633Z" style="fill:rgb(254,195,9);fill-rule:nonzero;"/>
                    </g>
                    <g transform="matrix(19.6254,0,0,19.6254,139.573,155.858)">
                        <path d="M0.047,-0.317C0.047,-0.347 0.05,-0.376 0.058,-0.404C0.066,-0.432 0.077,-0.459 0.092,-0.483C0.106,-0.507 0.123,-0.529 0.143,-0.549C0.163,-0.569 0.185,-0.586 0.21,-0.6C0.234,-0.614 0.26,-0.625 0.288,-0.633C0.316,-0.641 0.345,-0.645 0.375,-0.645C0.405,-0.645 0.434,-0.641 0.462,-0.633C0.49,-0.625 0.516,-0.614 0.54,-0.6C0.564,-0.586 0.587,-0.569 0.607,-0.549C0.627,-0.529 0.644,-0.507 0.658,-0.483C0.672,-0.459 0.683,-0.432 0.691,-0.404C0.699,-0.376 0.703,-0.347 0.703,-0.317C0.703,-0.286 0.699,-0.257 0.691,-0.229C0.683,-0.201 0.672,-0.175 0.658,-0.151C0.644,-0.127 0.627,-0.105 0.607,-0.085C0.587,-0.065 0.564,-0.047 0.54,-0.033C0.516,-0.019 0.49,-0.008 0.462,0C0.434,0.008 0.405,0.012 0.375,0.012C0.345,0.012 0.316,0.008 0.288,0C0.26,-0.008 0.234,-0.019 0.21,-0.033C0.185,-0.047 0.163,-0.065 0.143,-0.085C0.123,-0.105 0.106,-0.127 0.092,-0.151C0.077,-0.175 0.066,-0.201 0.058,-0.229C0.05,-0.257 0.047,-0.286 0.047,-0.317ZM0.188,-0.317C0.188,-0.29 0.192,-0.265 0.202,-0.241C0.211,-0.217 0.224,-0.196 0.241,-0.179C0.257,-0.161 0.277,-0.147 0.3,-0.137C0.323,-0.126 0.347,-0.121 0.375,-0.121C0.401,-0.121 0.425,-0.126 0.448,-0.137C0.47,-0.147 0.49,-0.161 0.506,-0.179C0.522,-0.196 0.535,-0.217 0.544,-0.241C0.553,-0.265 0.558,-0.29 0.558,-0.317C0.558,-0.343 0.553,-0.368 0.544,-0.392C0.535,-0.416 0.522,-0.437 0.506,-0.455C0.49,-0.473 0.47,-0.488 0.448,-0.499C0.425,-0.51 0.401,-0.515 0.375,-0.515C0.347,-0.515 0.323,-0.51 0.3,-0.499C0.277,-0.488 0.257,-0.473 0.241,-0.455C0.224,-0.437 0.211,-0.416 0.202,-0.392C0.192,-0.368 0.188,-0.343 0.188,-0.317Z" style="fill:rgb(254,195,9);fill-rule:nonzero;"/>
                    </g>
                    <g transform="matrix(19.6254,0,0,19.6254,154.243,155.858)">
                        <path d="M0.047,-0.317C0.047,-0.347 0.05,-0.376 0.058,-0.404C0.066,-0.432 0.077,-0.459 0.092,-0.483C0.106,-0.507 0.123,-0.529 0.143,-0.549C0.163,-0.569 0.185,-0.586 0.21,-0.6C0.234,-0.614 0.26,-0.625 0.288,-0.633C0.316,-0.641 0.345,-0.645 0.375,-0.645C0.405,-0.645 0.434,-0.641 0.462,-0.633C0.49,-0.625 0.516,-0.614 0.54,-0.6C0.564,-0.586 0.587,-0.569 0.607,-0.549C0.627,-0.529 0.644,-0.507 0.658,-0.483C0.672,-0.459 0.683,-0.432 0.691,-0.404C0.699,-0.376 0.703,-0.347 0.703,-0.317C0.703,-0.286 0.699,-0.257 0.691,-0.229C0.683,-0.201 0.672,-0.175 0.658,-0.151C0.644,-0.127 0.627,-0.105 0.607,-0.085C0.587,-0.065 0.564,-0.047 0.54,-0.033C0.516,-0.019 0.49,-0.008 0.462,0C0.434,0.008 0.405,0.012 0.375,0.012C0.345,0.012 0.316,0.008 0.288,0C0.26,-0.008 0.234,-0.019 0.21,-0.033C0.185,-0.047 0.163,-0.065 0.143,-0.085C0.123,-0.105 0.106,-0.127 0.092,-0.151C0.077,-0.175 0.066,-0.201 0.058,-0.229C0.05,-0.257 0.047,-0.286 0.047,-0.317ZM0.188,-0.317C0.188,-0.29 0.192,-0.265 0.202,-0.241C0.211,-0.217 0.224,-0.196 0.241,-0.179C0.257,-0.161 0.277,-0.147 0.3,-0.137C0.323,-0.126 0.347,-0.121 0.375,-0.121C0.401,-0.121 0.425,-0.126 0.448,-0.137C0.47,-0.147 0.49,-0.161 0.506,-0.179C0.522,-0.196 0.535,-0.217 0.544,-0.241C0.553,-0.265 0.558,-0.29 0.558,-0.317C0.558,-0.343 0.553,-0.368 0.544,-0.392C0.535,-0.416 0.522,-0.437 0.506,-0.455C0.49,-0.473 0.47,-0.488 0.448,-0.499C0.425,-0.51 0.401,-0.515 0.375,-0.515C0.347,-0.515 0.323,-0.51 0.3,-0.499C0.277,-0.488 0.257,-0.473 0.241,-0.455C0.224,-0.437 0.211,-0.416 0.202,-0.392C0.192,-0.368 0.188,-0.343 0.188,-0.317Z" style="fill:rgb(254,195,9);fill-rule:nonzero;"/>
                    </g>
                    <g transform="matrix(19.6254,0,0,19.6254,168.913,155.858)">
                        <path d="M0.561,-0.073C0.549,-0.061 0.536,-0.05 0.522,-0.04C0.508,-0.029 0.492,-0.02 0.476,-0.013C0.46,-0.005 0.443,0.001 0.425,0.005C0.407,0.009 0.388,0.012 0.368,0.012C0.323,0.012 0.281,0.003 0.242,-0.014C0.203,-0.031 0.17,-0.055 0.141,-0.085C0.112,-0.114 0.089,-0.149 0.073,-0.189C0.057,-0.229 0.049,-0.271 0.049,-0.317C0.049,-0.362 0.057,-0.405 0.073,-0.445C0.089,-0.485 0.112,-0.519 0.141,-0.549C0.17,-0.579 0.203,-0.602 0.242,-0.619C0.281,-0.636 0.323,-0.645 0.368,-0.645C0.409,-0.645 0.444,-0.638 0.476,-0.623C0.507,-0.609 0.534,-0.589 0.558,-0.564L0.558,-0.794C0.558,-0.802 0.561,-0.809 0.566,-0.815C0.571,-0.821 0.579,-0.824 0.589,-0.824L0.671,-0.824C0.679,-0.824 0.686,-0.821 0.693,-0.815C0.699,-0.81 0.703,-0.803 0.703,-0.794L0.703,-0.03C0.703,-0.01 0.692,0 0.671,0L0.596,0C0.586,0 0.579,-0.003 0.575,-0.008C0.571,-0.012 0.568,-0.02 0.565,-0.03L0.561,-0.073ZM0.189,-0.317C0.189,-0.29 0.194,-0.265 0.203,-0.241C0.212,-0.217 0.225,-0.196 0.242,-0.179C0.259,-0.161 0.278,-0.147 0.301,-0.137C0.323,-0.126 0.348,-0.121 0.375,-0.121C0.401,-0.121 0.426,-0.126 0.449,-0.136C0.472,-0.146 0.493,-0.16 0.51,-0.178C0.527,-0.195 0.541,-0.216 0.551,-0.239C0.561,-0.262 0.567,-0.287 0.568,-0.313L0.568,-0.317C0.568,-0.343 0.563,-0.368 0.553,-0.392C0.543,-0.416 0.529,-0.437 0.512,-0.455C0.494,-0.473 0.474,-0.488 0.45,-0.499C0.427,-0.51 0.402,-0.515 0.375,-0.515C0.348,-0.515 0.323,-0.51 0.301,-0.499C0.278,-0.488 0.259,-0.473 0.242,-0.455C0.225,-0.437 0.212,-0.416 0.203,-0.392C0.194,-0.368 0.189,-0.343 0.189,-0.317Z" style="fill:rgb(254,195,9);fill-rule:nonzero;"/>
                    </g>
                    <g transform="matrix(19.6254,0,0,19.6254,190.128,155.858)">
                        <path d="M0.138,-0.179C0.145,-0.168 0.153,-0.159 0.164,-0.151C0.175,-0.142 0.186,-0.136 0.197,-0.131C0.208,-0.126 0.219,-0.122 0.229,-0.12C0.239,-0.117 0.247,-0.116 0.253,-0.116C0.262,-0.116 0.273,-0.117 0.286,-0.119C0.299,-0.121 0.311,-0.125 0.322,-0.13C0.333,-0.135 0.342,-0.142 0.35,-0.151C0.358,-0.16 0.362,-0.171 0.362,-0.185C0.362,-0.198 0.359,-0.209 0.353,-0.217C0.347,-0.225 0.338,-0.232 0.328,-0.238C0.317,-0.243 0.305,-0.248 0.292,-0.252C0.278,-0.255 0.264,-0.259 0.249,-0.264C0.214,-0.273 0.184,-0.284 0.16,-0.297C0.135,-0.31 0.115,-0.326 0.099,-0.343C0.083,-0.36 0.071,-0.378 0.064,-0.399C0.057,-0.419 0.053,-0.441 0.053,-0.465C0.053,-0.492 0.058,-0.517 0.069,-0.539C0.08,-0.561 0.095,-0.581 0.114,-0.597C0.133,-0.613 0.157,-0.625 0.184,-0.634C0.211,-0.643 0.241,-0.647 0.274,-0.647C0.297,-0.647 0.318,-0.645 0.337,-0.641C0.355,-0.637 0.372,-0.63 0.388,-0.622C0.403,-0.614 0.418,-0.603 0.432,-0.591C0.446,-0.578 0.46,-0.563 0.474,-0.546C0.479,-0.54 0.482,-0.534 0.482,-0.529C0.482,-0.523 0.478,-0.517 0.472,-0.512C0.467,-0.508 0.461,-0.503 0.454,-0.497C0.447,-0.491 0.44,-0.485 0.434,-0.479C0.427,-0.473 0.421,-0.468 0.415,-0.465C0.409,-0.46 0.404,-0.459 0.4,-0.459C0.392,-0.459 0.385,-0.463 0.378,-0.472C0.371,-0.48 0.363,-0.488 0.356,-0.494C0.349,-0.501 0.341,-0.506 0.333,-0.51C0.325,-0.514 0.316,-0.518 0.307,-0.52C0.298,-0.522 0.288,-0.523 0.277,-0.523C0.268,-0.523 0.258,-0.522 0.248,-0.519C0.238,-0.516 0.229,-0.512 0.221,-0.507C0.213,-0.502 0.206,-0.495 0.201,-0.488C0.195,-0.48 0.193,-0.472 0.193,-0.463C0.193,-0.452 0.196,-0.443 0.203,-0.435C0.21,-0.428 0.218,-0.421 0.229,-0.416C0.239,-0.41 0.251,-0.406 0.263,-0.402C0.275,-0.398 0.287,-0.395 0.298,-0.392C0.328,-0.383 0.356,-0.373 0.382,-0.362C0.408,-0.351 0.43,-0.337 0.448,-0.321C0.467,-0.305 0.481,-0.286 0.492,-0.264C0.502,-0.242 0.507,-0.216 0.507,-0.187C0.507,-0.156 0.501,-0.128 0.489,-0.104C0.476,-0.079 0.459,-0.059 0.437,-0.042C0.415,-0.025 0.39,-0.012 0.36,-0.003C0.33,0.007 0.298,0.011 0.263,0.011C0.242,0.011 0.22,0.009 0.199,0.004C0.177,0 0.156,-0.007 0.136,-0.017C0.116,-0.026 0.098,-0.038 0.081,-0.053C0.064,-0.068 0.05,-0.086 0.039,-0.106C0.034,-0.114 0.032,-0.122 0.032,-0.129C0.032,-0.133 0.033,-0.137 0.035,-0.14C0.037,-0.143 0.04,-0.146 0.044,-0.149L0.1,-0.192C0.105,-0.195 0.109,-0.197 0.113,-0.197C0.118,-0.197 0.122,-0.195 0.126,-0.192C0.129,-0.189 0.133,-0.184 0.138,-0.179Z" style="fill:rgb(254,195,9);fill-rule:nonzero;"/>
                    </g>
                    <g transform="matrix(19.6254,0,0,19.6254,200.903,155.858)">
                        <path d="M0.589,-0.07C0.56,-0.045 0.528,-0.025 0.493,-0.011C0.458,0.003 0.42,0.011 0.378,0.011C0.333,0.011 0.29,0.002 0.25,-0.015C0.21,-0.032 0.174,-0.055 0.144,-0.085C0.114,-0.115 0.09,-0.149 0.072,-0.189C0.054,-0.229 0.045,-0.272 0.045,-0.318C0.045,-0.348 0.049,-0.376 0.056,-0.404C0.063,-0.432 0.074,-0.458 0.087,-0.482C0.101,-0.506 0.117,-0.528 0.137,-0.548C0.156,-0.568 0.177,-0.586 0.201,-0.6C0.225,-0.614 0.251,-0.625 0.279,-0.633C0.307,-0.641 0.336,-0.645 0.367,-0.645C0.392,-0.645 0.417,-0.642 0.442,-0.636C0.467,-0.63 0.49,-0.621 0.512,-0.61C0.534,-0.598 0.555,-0.584 0.575,-0.568C0.594,-0.552 0.611,-0.534 0.626,-0.514C0.646,-0.486 0.66,-0.455 0.67,-0.423C0.679,-0.391 0.684,-0.355 0.684,-0.316C0.684,-0.306 0.683,-0.298 0.682,-0.291C0.681,-0.285 0.679,-0.28 0.676,-0.276C0.673,-0.272 0.668,-0.269 0.661,-0.267C0.654,-0.265 0.645,-0.264 0.633,-0.264L0.19,-0.264C0.194,-0.24 0.202,-0.219 0.214,-0.2C0.226,-0.182 0.241,-0.166 0.258,-0.153C0.274,-0.14 0.292,-0.131 0.312,-0.124C0.332,-0.118 0.351,-0.115 0.371,-0.115C0.386,-0.115 0.4,-0.116 0.414,-0.119C0.428,-0.122 0.441,-0.126 0.453,-0.131C0.465,-0.136 0.476,-0.142 0.486,-0.148C0.496,-0.155 0.505,-0.162 0.513,-0.169C0.513,-0.169 0.513,-0.169 0.514,-0.169C0.518,-0.173 0.521,-0.176 0.525,-0.178C0.529,-0.18 0.533,-0.181 0.537,-0.181C0.54,-0.181 0.543,-0.18 0.547,-0.178C0.551,-0.176 0.554,-0.173 0.558,-0.168L0.597,-0.122C0.601,-0.117 0.603,-0.113 0.605,-0.109C0.607,-0.105 0.608,-0.102 0.608,-0.098C0.608,-0.089 0.602,-0.079 0.589,-0.07ZM0.367,-0.521C0.347,-0.521 0.328,-0.517 0.31,-0.51C0.291,-0.503 0.274,-0.493 0.258,-0.481C0.243,-0.469 0.229,-0.454 0.218,-0.438C0.206,-0.421 0.198,-0.403 0.193,-0.384L0.547,-0.384C0.541,-0.404 0.533,-0.422 0.522,-0.439C0.511,-0.456 0.498,-0.471 0.483,-0.483C0.468,-0.495 0.45,-0.504 0.431,-0.511C0.411,-0.518 0.39,-0.521 0.367,-0.521Z" style="fill:rgb(254,195,9);fill-rule:nonzero;"/>
                    </g>
                    <g transform="matrix(19.6254,0,0,19.6254,215.278,155.858)">
                        <path d="M0.069,-0.606C0.069,-0.615 0.072,-0.623 0.079,-0.628C0.085,-0.632 0.092,-0.635 0.1,-0.635L0.164,-0.635C0.172,-0.635 0.178,-0.632 0.183,-0.628C0.187,-0.623 0.19,-0.616 0.193,-0.609C0.195,-0.602 0.197,-0.594 0.198,-0.585C0.199,-0.577 0.2,-0.569 0.201,-0.562C0.208,-0.572 0.217,-0.582 0.226,-0.592C0.235,-0.602 0.245,-0.611 0.257,-0.619C0.269,-0.626 0.282,-0.632 0.297,-0.637C0.311,-0.642 0.328,-0.644 0.347,-0.644C0.363,-0.644 0.378,-0.643 0.392,-0.641C0.405,-0.639 0.418,-0.635 0.43,-0.631C0.442,-0.626 0.454,-0.62 0.466,-0.613C0.477,-0.606 0.49,-0.598 0.503,-0.588C0.509,-0.584 0.514,-0.58 0.518,-0.576C0.522,-0.571 0.524,-0.565 0.524,-0.559C0.524,-0.556 0.523,-0.554 0.523,-0.551C0.522,-0.548 0.521,-0.545 0.519,-0.542L0.478,-0.477C0.475,-0.473 0.472,-0.471 0.468,-0.469C0.465,-0.468 0.462,-0.467 0.459,-0.467C0.454,-0.467 0.448,-0.468 0.444,-0.471C0.432,-0.477 0.423,-0.483 0.414,-0.488C0.405,-0.493 0.396,-0.498 0.387,-0.502C0.378,-0.506 0.369,-0.509 0.36,-0.511C0.351,-0.513 0.341,-0.514 0.33,-0.514C0.3,-0.514 0.275,-0.505 0.254,-0.486C0.234,-0.466 0.22,-0.44 0.213,-0.407L0.213,-0.03C0.213,-0.01 0.203,0 0.182,0L0.1,0C0.079,0 0.069,-0.01 0.069,-0.03L0.069,-0.606Z" style="fill:rgb(254,195,9);fill-rule:nonzero;"/>
                    </g>
                    <g transform="matrix(19.6254,0,0,19.6254,225.994,155.858)">
                        <path d="M0.015,-0.595C0.015,-0.595 0.015,-0.595 0.015,-0.597L0.012,-0.608C0.012,-0.61 0.012,-0.612 0.012,-0.614C0.012,-0.62 0.014,-0.625 0.018,-0.629C0.023,-0.633 0.029,-0.635 0.039,-0.635L0.129,-0.635C0.137,-0.635 0.143,-0.633 0.148,-0.629C0.153,-0.625 0.157,-0.619 0.16,-0.612L0.169,-0.59C0.176,-0.571 0.183,-0.549 0.192,-0.526C0.2,-0.502 0.209,-0.477 0.218,-0.452C0.227,-0.427 0.236,-0.402 0.245,-0.377C0.254,-0.352 0.263,-0.329 0.271,-0.307C0.279,-0.285 0.286,-0.266 0.292,-0.249C0.298,-0.232 0.303,-0.22 0.307,-0.211C0.313,-0.227 0.319,-0.246 0.327,-0.267C0.334,-0.288 0.342,-0.31 0.351,-0.334C0.36,-0.358 0.369,-0.383 0.378,-0.408C0.387,-0.433 0.395,-0.458 0.404,-0.483C0.413,-0.507 0.421,-0.53 0.429,-0.552C0.437,-0.574 0.444,-0.595 0.45,-0.613C0.453,-0.621 0.457,-0.626 0.462,-0.63C0.467,-0.633 0.474,-0.635 0.482,-0.635L0.576,-0.635C0.586,-0.635 0.593,-0.633 0.597,-0.63C0.601,-0.627 0.603,-0.622 0.603,-0.617C0.603,-0.614 0.602,-0.611 0.601,-0.607C0.6,-0.603 0.6,-0.6 0.599,-0.598L0.361,-0.02C0.358,-0.015 0.355,-0.011 0.351,-0.007C0.347,-0.002 0.34,0 0.33,0L0.284,0C0.272,0 0.264,-0.002 0.26,-0.006C0.256,-0.01 0.253,-0.015 0.251,-0.02L0.015,-0.595Z" style="fill:rgb(254,195,9);fill-rule:nonzero;"/>
                    </g>
                    <g transform="matrix(19.6254,0,0,19.6254,238.093,155.858)">
                        <path d="M0.07,-0.605C0.07,-0.613 0.073,-0.62 0.078,-0.626C0.083,-0.632 0.09,-0.635 0.1,-0.635L0.183,-0.635C0.186,-0.635 0.19,-0.634 0.194,-0.633C0.198,-0.631 0.201,-0.629 0.204,-0.626C0.207,-0.623 0.21,-0.62 0.212,-0.617C0.214,-0.613 0.215,-0.609 0.215,-0.605L0.215,-0.03C0.215,-0.01 0.204,0 0.183,0L0.1,0C0.08,0 0.07,-0.01 0.07,-0.03L0.07,-0.605ZM0.07,-0.826C0.07,-0.846 0.08,-0.856 0.1,-0.856L0.184,-0.856C0.193,-0.856 0.2,-0.853 0.206,-0.848C0.212,-0.843 0.215,-0.836 0.215,-0.826L0.215,-0.751C0.215,-0.743 0.212,-0.736 0.207,-0.729C0.201,-0.722 0.194,-0.719 0.184,-0.719L0.1,-0.719C0.08,-0.719 0.07,-0.73 0.07,-0.751L0.07,-0.826Z" style="fill:rgb(254,195,9);fill-rule:nonzero;"/>
                    </g>
                    <g transform="matrix(19.6254,0,0,19.6254,244.128,155.858)">
                        <path d="M0.497,-0.167C0.502,-0.17 0.507,-0.172 0.511,-0.173C0.515,-0.174 0.518,-0.175 0.521,-0.175C0.526,-0.174 0.531,-0.171 0.535,-0.166L0.547,-0.149L0.583,-0.099C0.584,-0.096 0.586,-0.094 0.587,-0.091C0.588,-0.089 0.588,-0.087 0.588,-0.085C0.588,-0.079 0.586,-0.074 0.583,-0.07C0.579,-0.066 0.574,-0.062 0.568,-0.058C0.54,-0.037 0.509,-0.02 0.476,-0.008C0.443,0.005 0.407,0.012 0.368,0.012C0.338,0.012 0.31,0.008 0.282,0C0.254,-0.008 0.228,-0.019 0.204,-0.033C0.18,-0.047 0.158,-0.064 0.138,-0.084C0.118,-0.104 0.1,-0.126 0.086,-0.151C0.071,-0.175 0.06,-0.201 0.052,-0.229C0.044,-0.257 0.041,-0.286 0.041,-0.317C0.041,-0.347 0.044,-0.376 0.052,-0.404C0.06,-0.432 0.071,-0.458 0.086,-0.483C0.1,-0.507 0.118,-0.529 0.138,-0.549C0.158,-0.569 0.18,-0.586 0.204,-0.6C0.228,-0.614 0.254,-0.625 0.282,-0.633C0.31,-0.641 0.338,-0.645 0.368,-0.645C0.405,-0.645 0.44,-0.639 0.473,-0.628C0.506,-0.616 0.535,-0.601 0.561,-0.582L0.561,-0.582C0.565,-0.577 0.57,-0.573 0.574,-0.57C0.579,-0.566 0.581,-0.561 0.581,-0.554C0.581,-0.552 0.581,-0.549 0.581,-0.547C0.581,-0.544 0.58,-0.541 0.578,-0.539L0.537,-0.477C0.53,-0.467 0.523,-0.462 0.515,-0.462C0.509,-0.462 0.503,-0.464 0.496,-0.47C0.479,-0.484 0.459,-0.496 0.437,-0.505C0.414,-0.514 0.391,-0.519 0.367,-0.519C0.341,-0.519 0.316,-0.513 0.293,-0.502C0.27,-0.491 0.25,-0.477 0.233,-0.458C0.216,-0.44 0.202,-0.418 0.192,-0.394C0.182,-0.369 0.177,-0.343 0.177,-0.317C0.177,-0.289 0.182,-0.263 0.192,-0.239C0.202,-0.214 0.216,-0.193 0.233,-0.175C0.25,-0.157 0.27,-0.143 0.293,-0.132C0.316,-0.122 0.341,-0.117 0.367,-0.117C0.395,-0.117 0.419,-0.121 0.44,-0.131C0.461,-0.141 0.48,-0.153 0.497,-0.167Z" style="fill:rgb(254,195,9);fill-rule:nonzero;"/>
                    </g>
                    <g transform="matrix(19.6254,0,0,19.6254,256.364,155.858)">
                        <path d="M0.589,-0.07C0.56,-0.045 0.528,-0.025 0.493,-0.011C0.458,0.003 0.42,0.011 0.378,0.011C0.333,0.011 0.29,0.002 0.25,-0.015C0.21,-0.032 0.174,-0.055 0.144,-0.085C0.114,-0.115 0.09,-0.149 0.072,-0.189C0.054,-0.229 0.045,-0.272 0.045,-0.318C0.045,-0.348 0.049,-0.376 0.056,-0.404C0.063,-0.432 0.074,-0.458 0.087,-0.482C0.101,-0.506 0.117,-0.528 0.137,-0.548C0.156,-0.568 0.177,-0.586 0.201,-0.6C0.225,-0.614 0.251,-0.625 0.279,-0.633C0.307,-0.641 0.336,-0.645 0.367,-0.645C0.392,-0.645 0.417,-0.642 0.442,-0.636C0.467,-0.63 0.49,-0.621 0.512,-0.61C0.534,-0.598 0.555,-0.584 0.575,-0.568C0.594,-0.552 0.611,-0.534 0.626,-0.514C0.646,-0.486 0.66,-0.455 0.67,-0.423C0.679,-0.391 0.684,-0.355 0.684,-0.316C0.684,-0.306 0.683,-0.298 0.682,-0.291C0.681,-0.285 0.679,-0.28 0.676,-0.276C0.673,-0.272 0.668,-0.269 0.661,-0.267C0.654,-0.265 0.645,-0.264 0.633,-0.264L0.19,-0.264C0.194,-0.24 0.202,-0.219 0.214,-0.2C0.226,-0.182 0.241,-0.166 0.258,-0.153C0.274,-0.14 0.292,-0.131 0.312,-0.124C0.332,-0.118 0.351,-0.115 0.371,-0.115C0.386,-0.115 0.4,-0.116 0.414,-0.119C0.428,-0.122 0.441,-0.126 0.453,-0.131C0.465,-0.136 0.476,-0.142 0.486,-0.148C0.496,-0.155 0.505,-0.162 0.513,-0.169C0.513,-0.169 0.513,-0.169 0.514,-0.169C0.518,-0.173 0.521,-0.176 0.525,-0.178C0.529,-0.18 0.533,-0.181 0.537,-0.181C0.54,-0.181 0.543,-0.18 0.547,-0.178C0.551,-0.176 0.554,-0.173 0.558,-0.168L0.597,-0.122C0.601,-0.117 0.603,-0.113 0.605,-0.109C0.607,-0.105 0.608,-0.102 0.608,-0.098C0.608,-0.089 0.602,-0.079 0.589,-0.07ZM0.367,-0.521C0.347,-0.521 0.328,-0.517 0.31,-0.51C0.291,-0.503 0.274,-0.493 0.258,-0.481C0.243,-0.469 0.229,-0.454 0.218,-0.438C0.206,-0.421 0.198,-0.403 0.193,-0.384L0.547,-0.384C0.541,-0.404 0.533,-0.422 0.522,-0.439C0.511,-0.456 0.498,-0.471 0.483,-0.483C0.468,-0.495 0.45,-0.504 0.431,-0.511C0.411,-0.518 0.39,-0.521 0.367,-0.521Z" style="fill:rgb(254,195,9);fill-rule:nonzero;"/>
                    </g>
                    <g transform="matrix(19.6254,0,0,19.6254,276.892,155.858)">
                        <path d="M0.497,-0.167C0.502,-0.17 0.507,-0.172 0.511,-0.173C0.515,-0.174 0.518,-0.175 0.521,-0.175C0.526,-0.174 0.531,-0.171 0.535,-0.166L0.547,-0.149L0.583,-0.099C0.584,-0.096 0.586,-0.094 0.587,-0.091C0.588,-0.089 0.588,-0.087 0.588,-0.085C0.588,-0.079 0.586,-0.074 0.583,-0.07C0.579,-0.066 0.574,-0.062 0.568,-0.058C0.54,-0.037 0.509,-0.02 0.476,-0.008C0.443,0.005 0.407,0.012 0.368,0.012C0.338,0.012 0.31,0.008 0.282,0C0.254,-0.008 0.228,-0.019 0.204,-0.033C0.18,-0.047 0.158,-0.064 0.138,-0.084C0.118,-0.104 0.1,-0.126 0.086,-0.151C0.071,-0.175 0.06,-0.201 0.052,-0.229C0.044,-0.257 0.041,-0.286 0.041,-0.317C0.041,-0.347 0.044,-0.376 0.052,-0.404C0.06,-0.432 0.071,-0.458 0.086,-0.483C0.1,-0.507 0.118,-0.529 0.138,-0.549C0.158,-0.569 0.18,-0.586 0.204,-0.6C0.228,-0.614 0.254,-0.625 0.282,-0.633C0.31,-0.641 0.338,-0.645 0.368,-0.645C0.405,-0.645 0.44,-0.639 0.473,-0.628C0.506,-0.616 0.535,-0.601 0.561,-0.582L0.561,-0.582C0.565,-0.577 0.57,-0.573 0.574,-0.57C0.579,-0.566 0.581,-0.561 0.581,-0.554C0.581,-0.552 0.581,-0.549 0.581,-0.547C0.581,-0.544 0.58,-0.541 0.578,-0.539L0.537,-0.477C0.53,-0.467 0.523,-0.462 0.515,-0.462C0.509,-0.462 0.503,-0.464 0.496,-0.47C0.479,-0.484 0.459,-0.496 0.437,-0.505C0.414,-0.514 0.391,-0.519 0.367,-0.519C0.341,-0.519 0.316,-0.513 0.293,-0.502C0.27,-0.491 0.25,-0.477 0.233,-0.458C0.216,-0.44 0.202,-0.418 0.192,-0.394C0.182,-0.369 0.177,-0.343 0.177,-0.317C0.177,-0.289 0.182,-0.263 0.192,-0.239C0.202,-0.214 0.216,-0.193 0.233,-0.175C0.25,-0.157 0.27,-0.143 0.293,-0.132C0.316,-0.122 0.341,-0.117 0.367,-0.117C0.395,-0.117 0.419,-0.121 0.44,-0.131C0.461,-0.141 0.48,-0.153 0.497,-0.167Z" style="fill:rgb(254,195,9);fill-rule:nonzero;"/>
                    </g>
                    <g transform="matrix(19.6254,0,0,19.6254,289.129,155.858)">
                        <path d="M0.047,-0.317C0.047,-0.347 0.05,-0.376 0.058,-0.404C0.066,-0.432 0.077,-0.459 0.092,-0.483C0.106,-0.507 0.123,-0.529 0.143,-0.549C0.163,-0.569 0.185,-0.586 0.21,-0.6C0.234,-0.614 0.26,-0.625 0.288,-0.633C0.316,-0.641 0.345,-0.645 0.375,-0.645C0.405,-0.645 0.434,-0.641 0.462,-0.633C0.49,-0.625 0.516,-0.614 0.54,-0.6C0.564,-0.586 0.587,-0.569 0.607,-0.549C0.627,-0.529 0.644,-0.507 0.658,-0.483C0.672,-0.459 0.683,-0.432 0.691,-0.404C0.699,-0.376 0.703,-0.347 0.703,-0.317C0.703,-0.286 0.699,-0.257 0.691,-0.229C0.683,-0.201 0.672,-0.175 0.658,-0.151C0.644,-0.127 0.627,-0.105 0.607,-0.085C0.587,-0.065 0.564,-0.047 0.54,-0.033C0.516,-0.019 0.49,-0.008 0.462,0C0.434,0.008 0.405,0.012 0.375,0.012C0.345,0.012 0.316,0.008 0.288,0C0.26,-0.008 0.234,-0.019 0.21,-0.033C0.185,-0.047 0.163,-0.065 0.143,-0.085C0.123,-0.105 0.106,-0.127 0.092,-0.151C0.077,-0.175 0.066,-0.201 0.058,-0.229C0.05,-0.257 0.047,-0.286 0.047,-0.317ZM0.188,-0.317C0.188,-0.29 0.192,-0.265 0.202,-0.241C0.211,-0.217 0.224,-0.196 0.241,-0.179C0.257,-0.161 0.277,-0.147 0.3,-0.137C0.323,-0.126 0.347,-0.121 0.375,-0.121C0.401,-0.121 0.425,-0.126 0.448,-0.137C0.47,-0.147 0.49,-0.161 0.506,-0.179C0.522,-0.196 0.535,-0.217 0.544,-0.241C0.553,-0.265 0.558,-0.29 0.558,-0.317C0.558,-0.343 0.553,-0.368 0.544,-0.392C0.535,-0.416 0.522,-0.437 0.506,-0.455C0.49,-0.473 0.47,-0.488 0.448,-0.499C0.425,-0.51 0.401,-0.515 0.375,-0.515C0.347,-0.515 0.323,-0.51 0.3,-0.499C0.277,-0.488 0.257,-0.473 0.241,-0.455C0.224,-0.437 0.211,-0.416 0.202,-0.392C0.192,-0.368 0.188,-0.343 0.188,-0.317Z" style="fill:rgb(254,195,9);fill-rule:nonzero;"/>
                    </g>
                    <g transform="matrix(19.6254,0,0,19.6254,303.799,155.858)">
                        <path d="M0.07,-0.606C0.07,-0.61 0.072,-0.615 0.076,-0.621C0.08,-0.626 0.084,-0.629 0.088,-0.631C0.09,-0.633 0.094,-0.635 0.1,-0.635C0.105,-0.635 0.11,-0.635 0.115,-0.635L0.165,-0.635C0.175,-0.635 0.182,-0.632 0.187,-0.626C0.191,-0.619 0.194,-0.612 0.196,-0.605L0.202,-0.552C0.209,-0.563 0.219,-0.574 0.23,-0.585C0.241,-0.596 0.254,-0.606 0.27,-0.615C0.285,-0.623 0.302,-0.63 0.322,-0.636C0.342,-0.641 0.364,-0.644 0.389,-0.644C0.428,-0.644 0.463,-0.636 0.494,-0.622C0.524,-0.608 0.55,-0.589 0.571,-0.564C0.592,-0.539 0.608,-0.51 0.619,-0.477C0.63,-0.444 0.635,-0.408 0.635,-0.37L0.635,-0.036C0.635,-0.024 0.632,-0.015 0.627,-0.009C0.621,-0.003 0.613,0 0.602,0L0.526,0C0.513,0 0.504,-0.003 0.499,-0.008C0.495,-0.012 0.493,-0.021 0.493,-0.034L0.493,-0.367C0.493,-0.385 0.49,-0.402 0.484,-0.419C0.478,-0.436 0.469,-0.451 0.457,-0.464C0.446,-0.477 0.432,-0.488 0.415,-0.496C0.398,-0.504 0.378,-0.508 0.356,-0.508C0.34,-0.508 0.324,-0.505 0.308,-0.499C0.291,-0.493 0.276,-0.484 0.263,-0.473C0.249,-0.461 0.238,-0.447 0.229,-0.431C0.22,-0.415 0.215,-0.397 0.215,-0.377L0.215,-0.053C0.215,-0.046 0.214,-0.04 0.214,-0.034C0.213,-0.027 0.211,-0.022 0.209,-0.017C0.207,-0.012 0.204,-0.008 0.2,-0.005C0.196,-0.002 0.191,0 0.185,0L0.102,0C0.091,0 0.083,-0.003 0.078,-0.008C0.073,-0.013 0.07,-0.02 0.07,-0.03L0.07,-0.606Z" style="fill:rgb(254,195,9);fill-rule:nonzero;"/>
                    </g>
                    <g transform="matrix(19.6254,0,0,19.6254,317.144,155.858)">
                        <path d="M0.138,-0.179C0.145,-0.168 0.153,-0.159 0.164,-0.151C0.175,-0.142 0.186,-0.136 0.197,-0.131C0.208,-0.126 0.219,-0.122 0.229,-0.12C0.239,-0.117 0.247,-0.116 0.253,-0.116C0.262,-0.116 0.273,-0.117 0.286,-0.119C0.299,-0.121 0.311,-0.125 0.322,-0.13C0.333,-0.135 0.342,-0.142 0.35,-0.151C0.358,-0.16 0.362,-0.171 0.362,-0.185C0.362,-0.198 0.359,-0.209 0.353,-0.217C0.347,-0.225 0.338,-0.232 0.328,-0.238C0.317,-0.243 0.305,-0.248 0.292,-0.252C0.278,-0.255 0.264,-0.259 0.249,-0.264C0.214,-0.273 0.184,-0.284 0.16,-0.297C0.135,-0.31 0.115,-0.326 0.099,-0.343C0.083,-0.36 0.071,-0.378 0.064,-0.399C0.057,-0.419 0.053,-0.441 0.053,-0.465C0.053,-0.492 0.058,-0.517 0.069,-0.539C0.08,-0.561 0.095,-0.581 0.114,-0.597C0.133,-0.613 0.157,-0.625 0.184,-0.634C0.211,-0.643 0.241,-0.647 0.274,-0.647C0.297,-0.647 0.318,-0.645 0.337,-0.641C0.355,-0.637 0.372,-0.63 0.388,-0.622C0.403,-0.614 0.418,-0.603 0.432,-0.591C0.446,-0.578 0.46,-0.563 0.474,-0.546C0.479,-0.54 0.482,-0.534 0.482,-0.529C0.482,-0.523 0.478,-0.517 0.472,-0.512C0.467,-0.508 0.461,-0.503 0.454,-0.497C0.447,-0.491 0.44,-0.485 0.434,-0.479C0.427,-0.473 0.421,-0.468 0.415,-0.465C0.409,-0.46 0.404,-0.459 0.4,-0.459C0.392,-0.459 0.385,-0.463 0.378,-0.472C0.371,-0.48 0.363,-0.488 0.356,-0.494C0.349,-0.501 0.341,-0.506 0.333,-0.51C0.325,-0.514 0.316,-0.518 0.307,-0.52C0.298,-0.522 0.288,-0.523 0.277,-0.523C0.268,-0.523 0.258,-0.522 0.248,-0.519C0.238,-0.516 0.229,-0.512 0.221,-0.507C0.213,-0.502 0.206,-0.495 0.201,-0.488C0.195,-0.48 0.193,-0.472 0.193,-0.463C0.193,-0.452 0.196,-0.443 0.203,-0.435C0.21,-0.428 0.218,-0.421 0.229,-0.416C0.239,-0.41 0.251,-0.406 0.263,-0.402C0.275,-0.398 0.287,-0.395 0.298,-0.392C0.328,-0.383 0.356,-0.373 0.382,-0.362C0.408,-0.351 0.43,-0.337 0.448,-0.321C0.467,-0.305 0.481,-0.286 0.492,-0.264C0.502,-0.242 0.507,-0.216 0.507,-0.187C0.507,-0.156 0.501,-0.128 0.489,-0.104C0.476,-0.079 0.459,-0.059 0.437,-0.042C0.415,-0.025 0.39,-0.012 0.36,-0.003C0.33,0.007 0.298,0.011 0.263,0.011C0.242,0.011 0.22,0.009 0.199,0.004C0.177,0 0.156,-0.007 0.136,-0.017C0.116,-0.026 0.098,-0.038 0.081,-0.053C0.064,-0.068 0.05,-0.086 0.039,-0.106C0.034,-0.114 0.032,-0.122 0.032,-0.129C0.032,-0.133 0.033,-0.137 0.035,-0.14C0.037,-0.143 0.04,-0.146 0.044,-0.149L0.1,-0.192C0.105,-0.195 0.109,-0.197 0.113,-0.197C0.118,-0.197 0.122,-0.195 0.126,-0.192C0.129,-0.189 0.133,-0.184 0.138,-0.179Z" style="fill:rgb(254,195,9);fill-rule:nonzero;"/>
                    </g>
                    <g transform="matrix(19.6254,0,0,19.6254,327.918,155.858)">
                        <path d="M0.622,-0.02C0.622,-0.016 0.621,-0.013 0.618,-0.011C0.616,-0.009 0.613,-0.008 0.609,-0.007C0.605,-0.006 0.601,-0.005 0.597,-0.005C0.593,-0.005 0.589,-0.005 0.586,-0.005L0.535,-0.005C0.525,-0.005 0.518,-0.008 0.514,-0.014C0.509,-0.02 0.506,-0.028 0.504,-0.036L0.499,-0.081C0.491,-0.07 0.482,-0.059 0.471,-0.049C0.46,-0.039 0.447,-0.03 0.432,-0.022C0.417,-0.014 0.4,-0.008 0.38,-0.004C0.361,0.001 0.339,0.004 0.314,0.004C0.274,0.004 0.239,-0.004 0.209,-0.018C0.179,-0.032 0.153,-0.051 0.133,-0.076C0.112,-0.1 0.097,-0.129 0.086,-0.163C0.075,-0.196 0.07,-0.232 0.07,-0.27L0.07,-0.604C0.07,-0.616 0.073,-0.625 0.079,-0.631C0.084,-0.637 0.092,-0.64 0.103,-0.64L0.179,-0.64C0.192,-0.64 0.201,-0.638 0.206,-0.633C0.21,-0.628 0.213,-0.619 0.213,-0.606L0.213,-0.273C0.213,-0.255 0.215,-0.238 0.221,-0.221C0.226,-0.204 0.235,-0.189 0.246,-0.176C0.257,-0.162 0.27,-0.152 0.287,-0.144C0.303,-0.136 0.323,-0.132 0.345,-0.132C0.36,-0.132 0.376,-0.134 0.393,-0.14C0.409,-0.145 0.424,-0.153 0.438,-0.164C0.452,-0.175 0.463,-0.189 0.472,-0.205C0.481,-0.222 0.486,-0.241 0.486,-0.263L0.486,-0.588C0.486,-0.594 0.486,-0.6 0.487,-0.606C0.487,-0.612 0.489,-0.618 0.491,-0.623C0.493,-0.628 0.496,-0.632 0.5,-0.635C0.504,-0.638 0.509,-0.64 0.516,-0.64L0.598,-0.64C0.609,-0.64 0.617,-0.637 0.622,-0.632C0.627,-0.627 0.63,-0.619 0.63,-0.61L0.63,-0.035C0.63,-0.028 0.627,-0.023 0.622,-0.02Z" style="fill:rgb(254,195,9);fill-rule:nonzero;"/>
                    </g>
                    <g transform="matrix(19.6254,0,0,19.6254,341.666,155.858)">
                        <path d="M0.07,-0.794C0.07,-0.802 0.072,-0.809 0.077,-0.815C0.082,-0.821 0.089,-0.824 0.099,-0.824L0.186,-0.824C0.193,-0.824 0.199,-0.821 0.205,-0.815C0.211,-0.809 0.214,-0.802 0.214,-0.794L0.214,-0.03C0.214,-0.02 0.211,-0.012 0.205,-0.008C0.2,-0.003 0.192,0 0.183,0L0.1,0C0.089,0 0.081,-0.003 0.077,-0.008C0.072,-0.012 0.07,-0.02 0.07,-0.03L0.07,-0.794Z" style="fill:rgb(254,195,9);fill-rule:nonzero;"/>
                    </g>
                    <g transform="matrix(19.6254,0,0,19.6254,347.24,155.858)">
                        <path d="M0.298,0C0.272,0 0.247,-0.004 0.224,-0.012C0.201,-0.02 0.18,-0.031 0.163,-0.045C0.146,-0.06 0.133,-0.078 0.123,-0.099C0.113,-0.12 0.108,-0.144 0.108,-0.171L0.108,-0.254L0.108,-0.509L0.05,-0.509C0.04,-0.509 0.033,-0.511 0.028,-0.515C0.023,-0.519 0.021,-0.527 0.021,-0.537L0.021,-0.609C0.021,-0.618 0.023,-0.625 0.028,-0.629C0.033,-0.633 0.04,-0.635 0.05,-0.635L0.108,-0.635L0.108,-0.741C0.108,-0.747 0.11,-0.752 0.114,-0.756C0.118,-0.76 0.125,-0.764 0.134,-0.767C0.139,-0.769 0.146,-0.771 0.154,-0.774C0.162,-0.777 0.17,-0.779 0.179,-0.782C0.187,-0.785 0.196,-0.787 0.204,-0.789C0.212,-0.791 0.218,-0.792 0.224,-0.792C0.234,-0.792 0.241,-0.789 0.244,-0.783C0.247,-0.777 0.249,-0.77 0.249,-0.761C0.249,-0.74 0.248,-0.719 0.248,-0.698C0.248,-0.677 0.248,-0.656 0.248,-0.635L0.32,-0.635C0.329,-0.635 0.335,-0.633 0.34,-0.628C0.345,-0.624 0.347,-0.617 0.347,-0.607L0.347,-0.539C0.347,-0.528 0.345,-0.52 0.34,-0.516C0.335,-0.511 0.329,-0.509 0.32,-0.509L0.248,-0.509L0.248,-0.414L0.249,-0.349L0.249,-0.254C0.249,-0.253 0.248,-0.253 0.248,-0.252C0.248,-0.251 0.248,-0.251 0.248,-0.25L0.248,-0.185C0.248,-0.163 0.252,-0.147 0.261,-0.137C0.27,-0.127 0.284,-0.123 0.303,-0.123C0.31,-0.123 0.316,-0.12 0.32,-0.115C0.324,-0.11 0.326,-0.104 0.326,-0.097L0.326,-0.028C0.326,-0.019 0.323,-0.012 0.318,-0.007C0.313,-0.002 0.307,0 0.298,0Z" style="fill:rgb(254,195,9);fill-rule:nonzero;"/>
                    </g>
                    <g transform="matrix(19.6254,0,0,19.6254,354.638,155.858)">
                        <path d="M0.07,-0.605C0.07,-0.613 0.073,-0.62 0.078,-0.626C0.083,-0.632 0.09,-0.635 0.1,-0.635L0.183,-0.635C0.186,-0.635 0.19,-0.634 0.194,-0.633C0.198,-0.631 0.201,-0.629 0.204,-0.626C0.207,-0.623 0.21,-0.62 0.212,-0.617C0.214,-0.613 0.215,-0.609 0.215,-0.605L0.215,-0.03C0.215,-0.01 0.204,0 0.183,0L0.1,0C0.08,0 0.07,-0.01 0.07,-0.03L0.07,-0.605ZM0.07,-0.826C0.07,-0.846 0.08,-0.856 0.1,-0.856L0.184,-0.856C0.193,-0.856 0.2,-0.853 0.206,-0.848C0.212,-0.843 0.215,-0.836 0.215,-0.826L0.215,-0.751C0.215,-0.743 0.212,-0.736 0.207,-0.729C0.201,-0.722 0.194,-0.719 0.184,-0.719L0.1,-0.719C0.08,-0.719 0.07,-0.73 0.07,-0.751L0.07,-0.826Z" style="fill:rgb(254,195,9);fill-rule:nonzero;"/>
                    </g>
                    <g transform="matrix(19.6254,0,0,19.6254,360.673,155.858)">
                        <path d="M0.07,-0.606C0.07,-0.61 0.072,-0.615 0.076,-0.621C0.08,-0.626 0.084,-0.629 0.088,-0.631C0.09,-0.633 0.094,-0.635 0.1,-0.635C0.105,-0.635 0.11,-0.635 0.115,-0.635L0.165,-0.635C0.175,-0.635 0.182,-0.632 0.187,-0.626C0.191,-0.619 0.194,-0.612 0.196,-0.605L0.202,-0.552C0.209,-0.563 0.219,-0.574 0.23,-0.585C0.241,-0.596 0.254,-0.606 0.27,-0.615C0.285,-0.623 0.302,-0.63 0.322,-0.636C0.342,-0.641 0.364,-0.644 0.389,-0.644C0.428,-0.644 0.463,-0.636 0.494,-0.622C0.524,-0.608 0.55,-0.589 0.571,-0.564C0.592,-0.539 0.608,-0.51 0.619,-0.477C0.63,-0.444 0.635,-0.408 0.635,-0.37L0.635,-0.036C0.635,-0.024 0.632,-0.015 0.627,-0.009C0.621,-0.003 0.613,0 0.602,0L0.526,0C0.513,0 0.504,-0.003 0.499,-0.008C0.495,-0.012 0.493,-0.021 0.493,-0.034L0.493,-0.367C0.493,-0.385 0.49,-0.402 0.484,-0.419C0.478,-0.436 0.469,-0.451 0.457,-0.464C0.446,-0.477 0.432,-0.488 0.415,-0.496C0.398,-0.504 0.378,-0.508 0.356,-0.508C0.34,-0.508 0.324,-0.505 0.308,-0.499C0.291,-0.493 0.276,-0.484 0.263,-0.473C0.249,-0.461 0.238,-0.447 0.229,-0.431C0.22,-0.415 0.215,-0.397 0.215,-0.377L0.215,-0.053C0.215,-0.046 0.214,-0.04 0.214,-0.034C0.213,-0.027 0.211,-0.022 0.209,-0.017C0.207,-0.012 0.204,-0.008 0.2,-0.005C0.196,-0.002 0.191,0 0.185,0L0.102,0C0.091,0 0.083,-0.003 0.078,-0.008C0.073,-0.013 0.07,-0.02 0.07,-0.03L0.07,-0.606Z" style="fill:rgb(254,195,9);fill-rule:nonzero;"/>
                    </g>
                    <g transform="matrix(19.6254,0,0,19.6254,374.018,155.858)">
                        <path d="M0.557,-0.045C0.559,-0.051 0.56,-0.058 0.56,-0.066C0.56,-0.074 0.56,-0.082 0.561,-0.089C0.549,-0.076 0.536,-0.065 0.522,-0.054C0.509,-0.043 0.494,-0.033 0.479,-0.025C0.463,-0.017 0.446,-0.01 0.428,-0.006C0.409,-0.001 0.389,0.002 0.368,0.002C0.338,0.002 0.309,-0.002 0.282,-0.01C0.254,-0.017 0.229,-0.027 0.205,-0.041C0.181,-0.055 0.16,-0.071 0.141,-0.091C0.121,-0.11 0.105,-0.131 0.091,-0.155C0.077,-0.179 0.066,-0.204 0.059,-0.232C0.051,-0.26 0.048,-0.289 0.048,-0.319C0.048,-0.349 0.051,-0.378 0.059,-0.406C0.066,-0.434 0.077,-0.46 0.091,-0.484C0.105,-0.508 0.121,-0.531 0.141,-0.551C0.16,-0.571 0.181,-0.588 0.205,-0.602C0.229,-0.616 0.254,-0.627 0.282,-0.635C0.309,-0.643 0.338,-0.647 0.368,-0.647C0.389,-0.647 0.409,-0.644 0.428,-0.64C0.447,-0.635 0.465,-0.629 0.481,-0.621C0.498,-0.612 0.513,-0.602 0.528,-0.591C0.542,-0.58 0.555,-0.567 0.567,-0.554C0.568,-0.563 0.57,-0.572 0.571,-0.581C0.572,-0.589 0.573,-0.598 0.574,-0.607C0.576,-0.616 0.579,-0.624 0.583,-0.629C0.587,-0.634 0.594,-0.637 0.605,-0.637L0.67,-0.636C0.678,-0.636 0.684,-0.633 0.69,-0.628C0.696,-0.623 0.699,-0.616 0.699,-0.607L0.699,-0.097C0.699,-0.042 0.69,0.005 0.673,0.045C0.655,0.085 0.631,0.119 0.601,0.145C0.57,0.172 0.535,0.192 0.495,0.205C0.455,0.218 0.412,0.224 0.367,0.224C0.348,0.224 0.329,0.222 0.31,0.219C0.291,0.216 0.272,0.212 0.254,0.206C0.235,0.2 0.218,0.193 0.201,0.184C0.184,0.176 0.169,0.166 0.156,0.156C0.151,0.153 0.148,0.15 0.145,0.146C0.142,0.142 0.141,0.137 0.141,0.132C0.141,0.129 0.141,0.126 0.142,0.123C0.142,0.12 0.144,0.117 0.147,0.114L0.184,0.059C0.188,0.055 0.191,0.051 0.194,0.049C0.197,0.047 0.2,0.046 0.204,0.046C0.207,0.046 0.21,0.047 0.213,0.048C0.217,0.049 0.22,0.051 0.224,0.054C0.232,0.061 0.242,0.067 0.254,0.072C0.266,0.077 0.278,0.081 0.291,0.084C0.304,0.087 0.316,0.089 0.329,0.091C0.342,0.092 0.354,0.092 0.364,0.093C0.388,0.092 0.412,0.089 0.434,0.083C0.457,0.077 0.477,0.067 0.494,0.056C0.512,0.044 0.526,0.029 0.537,0.012C0.548,-0.005 0.555,-0.024 0.557,-0.045ZM0.188,-0.319C0.188,-0.292 0.193,-0.267 0.202,-0.243C0.211,-0.219 0.224,-0.199 0.241,-0.181C0.258,-0.163 0.277,-0.148 0.3,-0.138C0.322,-0.127 0.347,-0.122 0.374,-0.122C0.4,-0.122 0.425,-0.127 0.448,-0.138C0.471,-0.148 0.492,-0.162 0.509,-0.179C0.526,-0.197 0.54,-0.217 0.55,-0.241C0.56,-0.264 0.566,-0.289 0.567,-0.315L0.567,-0.323C0.566,-0.349 0.56,-0.373 0.55,-0.397C0.54,-0.42 0.526,-0.44 0.509,-0.458C0.492,-0.476 0.471,-0.49 0.448,-0.5C0.425,-0.51 0.4,-0.516 0.374,-0.516C0.347,-0.516 0.322,-0.51 0.3,-0.5C0.277,-0.489 0.258,-0.475 0.241,-0.457C0.224,-0.439 0.211,-0.418 0.202,-0.394C0.193,-0.37 0.188,-0.345 0.188,-0.319Z" style="fill:rgb(254,195,9);fill-rule:nonzero;"/>
                    </g>
                </g>
                <g transform="matrix(0.456779,0,0,0.456779,656.847,-77.0738)">
                    <g transform="matrix(129.717,0,0,129.717,72.9149,687.992)">
                        <path d="M0.652,-0.36C0.653,-0.359 0.655,-0.359 0.658,-0.359C0.667,-0.359 0.676,-0.362 0.685,-0.367C0.693,-0.372 0.699,-0.38 0.703,-0.39C0.706,-0.392 0.708,-0.394 0.709,-0.397C0.71,-0.4 0.711,-0.403 0.711,-0.406C0.712,-0.412 0.715,-0.417 0.718,-0.42C0.721,-0.424 0.725,-0.426 0.73,-0.426C0.732,-0.426 0.733,-0.425 0.734,-0.425L0.846,-0.403C0.85,-0.403 0.854,-0.4 0.858,-0.395C0.862,-0.39 0.864,-0.385 0.864,-0.38C0.864,-0.377 0.864,-0.375 0.864,-0.374C0.859,-0.348 0.851,-0.324 0.839,-0.303C0.827,-0.282 0.812,-0.264 0.795,-0.249C0.778,-0.234 0.758,-0.222 0.737,-0.214C0.715,-0.206 0.692,-0.202 0.669,-0.202C0.658,-0.202 0.648,-0.203 0.637,-0.205L0.604,-0.211C0.601,-0.179 0.596,-0.152 0.587,-0.129C0.578,-0.106 0.567,-0.086 0.553,-0.07C0.539,-0.054 0.523,-0.04 0.505,-0.03C0.487,-0.02 0.468,-0.012 0.448,-0.007C0.428,-0.001 0.407,0.003 0.386,0.005C0.364,0.007 0.342,0.009 0.321,0.009C0.285,0.009 0.251,0.003 0.218,-0.009C0.186,-0.021 0.157,-0.037 0.133,-0.058C0.108,-0.079 0.089,-0.104 0.075,-0.133C0.06,-0.162 0.053,-0.193 0.053,-0.228C0.053,-0.253 0.055,-0.275 0.06,-0.294C0.065,-0.313 0.072,-0.33 0.081,-0.345C0.09,-0.36 0.101,-0.374 0.113,-0.386C0.126,-0.398 0.14,-0.409 0.155,-0.42C0.14,-0.436 0.127,-0.455 0.117,-0.477C0.107,-0.499 0.102,-0.523 0.103,-0.549C0.102,-0.578 0.108,-0.604 0.12,-0.629C0.132,-0.654 0.148,-0.675 0.168,-0.693C0.187,-0.711 0.21,-0.726 0.236,-0.736C0.261,-0.746 0.288,-0.752 0.316,-0.752C0.343,-0.752 0.37,-0.748 0.396,-0.741C0.421,-0.733 0.444,-0.721 0.464,-0.705C0.483,-0.689 0.499,-0.667 0.511,-0.641C0.522,-0.615 0.528,-0.583 0.528,-0.545C0.528,-0.537 0.526,-0.532 0.521,-0.528C0.517,-0.524 0.511,-0.522 0.506,-0.522L0.403,-0.521C0.389,-0.521 0.382,-0.527 0.382,-0.54C0.382,-0.548 0.381,-0.556 0.379,-0.563C0.377,-0.57 0.374,-0.576 0.37,-0.581C0.365,-0.586 0.359,-0.589 0.352,-0.592C0.345,-0.595 0.336,-0.597 0.326,-0.597C0.314,-0.597 0.304,-0.594 0.296,-0.59C0.289,-0.586 0.283,-0.581 0.279,-0.575C0.275,-0.569 0.272,-0.562 0.27,-0.555C0.269,-0.548 0.268,-0.541 0.268,-0.535C0.268,-0.532 0.269,-0.527 0.271,-0.52C0.273,-0.513 0.276,-0.505 0.28,-0.498C0.284,-0.49 0.29,-0.483 0.297,-0.477C0.304,-0.471 0.312,-0.467 0.323,-0.465C0.334,-0.463 0.34,-0.456 0.34,-0.445C0.34,-0.442 0.34,-0.44 0.34,-0.439L0.32,-0.345C0.319,-0.339 0.317,-0.334 0.313,-0.332C0.309,-0.329 0.305,-0.328 0.301,-0.328C0.298,-0.328 0.296,-0.328 0.294,-0.329C0.291,-0.329 0.289,-0.329 0.287,-0.329C0.276,-0.329 0.267,-0.326 0.26,-0.321C0.253,-0.315 0.248,-0.308 0.244,-0.301C0.24,-0.293 0.237,-0.285 0.236,-0.277C0.234,-0.269 0.234,-0.262 0.234,-0.257C0.234,-0.247 0.235,-0.236 0.238,-0.224C0.241,-0.212 0.246,-0.201 0.253,-0.191C0.26,-0.181 0.27,-0.172 0.283,-0.165C0.296,-0.158 0.312,-0.155 0.332,-0.155C0.345,-0.155 0.358,-0.157 0.37,-0.161C0.382,-0.165 0.392,-0.17 0.402,-0.178C0.411,-0.185 0.418,-0.195 0.424,-0.206C0.43,-0.217 0.433,-0.229 0.434,-0.244L0.405,-0.25C0.4,-0.251 0.396,-0.253 0.393,-0.257C0.39,-0.261 0.389,-0.265 0.389,-0.27C0.389,-0.273 0.389,-0.274 0.39,-0.275C0.393,-0.293 0.396,-0.312 0.4,-0.33C0.404,-0.347 0.407,-0.366 0.411,-0.385C0.412,-0.39 0.414,-0.395 0.418,-0.398C0.421,-0.401 0.425,-0.402 0.43,-0.402C0.432,-0.402 0.434,-0.402 0.435,-0.402L0.652,-0.36Z" style="fill:rgb(67,67,67);fill-rule:nonzero;"/>
                    </g>
                    <g transform="matrix(129.717,0,0,129.717,223.517,687.992)">
                        <path d="M0.467,-0.196C0.471,-0.199 0.476,-0.201 0.48,-0.202C0.484,-0.203 0.487,-0.203 0.49,-0.203C0.495,-0.203 0.5,-0.202 0.505,-0.2C0.51,-0.197 0.515,-0.192 0.52,-0.185L0.576,-0.1C0.577,-0.097 0.579,-0.094 0.58,-0.091C0.582,-0.088 0.583,-0.085 0.583,-0.083C0.583,-0.075 0.58,-0.069 0.575,-0.064C0.57,-0.059 0.565,-0.055 0.56,-0.052C0.532,-0.033 0.502,-0.017 0.47,-0.006C0.437,0.006 0.403,0.012 0.367,0.012C0.337,0.012 0.308,0.008 0.28,0C0.252,-0.008 0.226,-0.019 0.202,-0.033C0.178,-0.047 0.156,-0.064 0.136,-0.084C0.116,-0.104 0.099,-0.126 0.085,-0.15C0.071,-0.174 0.06,-0.201 0.052,-0.229C0.044,-0.257 0.041,-0.286 0.041,-0.317C0.041,-0.348 0.044,-0.377 0.052,-0.406C0.06,-0.434 0.071,-0.46 0.085,-0.484C0.099,-0.508 0.116,-0.53 0.136,-0.55C0.156,-0.57 0.178,-0.587 0.202,-0.601C0.226,-0.615 0.252,-0.626 0.28,-0.634C0.308,-0.641 0.337,-0.645 0.367,-0.645C0.403,-0.645 0.436,-0.64 0.467,-0.631C0.498,-0.621 0.527,-0.607 0.554,-0.588L0.553,-0.589C0.56,-0.585 0.566,-0.58 0.57,-0.574C0.574,-0.568 0.577,-0.561 0.577,-0.552C0.577,-0.546 0.575,-0.54 0.571,-0.534L0.526,-0.458C0.517,-0.442 0.505,-0.434 0.492,-0.434C0.489,-0.434 0.485,-0.434 0.481,-0.436C0.477,-0.437 0.472,-0.44 0.467,-0.444C0.452,-0.453 0.436,-0.461 0.419,-0.467C0.402,-0.473 0.385,-0.476 0.366,-0.477C0.345,-0.476 0.325,-0.472 0.308,-0.464C0.29,-0.455 0.275,-0.444 0.262,-0.429C0.25,-0.414 0.24,-0.397 0.233,-0.378C0.226,-0.359 0.223,-0.338 0.223,-0.317C0.223,-0.295 0.226,-0.274 0.233,-0.255C0.24,-0.236 0.25,-0.22 0.262,-0.206C0.275,-0.192 0.29,-0.18 0.308,-0.172C0.325,-0.164 0.345,-0.16 0.366,-0.16C0.385,-0.16 0.402,-0.163 0.419,-0.17C0.436,-0.177 0.452,-0.185 0.467,-0.196Z" style="fill:rgb(67,67,67);fill-rule:nonzero;"/>
                    </g>
                    <g transform="matrix(129.717,0,0,129.717,300.374,687.992)">
                        <path d="M0.041,-0.317C0.041,-0.348 0.044,-0.377 0.052,-0.406C0.06,-0.434 0.071,-0.46 0.085,-0.484C0.099,-0.508 0.116,-0.53 0.136,-0.55C0.156,-0.57 0.178,-0.587 0.203,-0.601C0.227,-0.615 0.253,-0.626 0.281,-0.634C0.309,-0.641 0.339,-0.645 0.37,-0.645C0.415,-0.645 0.457,-0.637 0.497,-0.62C0.537,-0.603 0.572,-0.58 0.601,-0.55C0.631,-0.521 0.654,-0.486 0.671,-0.446C0.688,-0.406 0.697,-0.363 0.697,-0.317C0.697,-0.286 0.693,-0.257 0.685,-0.229C0.677,-0.201 0.666,-0.174 0.652,-0.15C0.638,-0.126 0.621,-0.104 0.601,-0.084C0.581,-0.064 0.559,-0.047 0.535,-0.033C0.511,-0.019 0.485,-0.008 0.457,0C0.429,0.008 0.4,0.012 0.37,0.012C0.339,0.012 0.309,0.008 0.281,0C0.253,-0.008 0.227,-0.019 0.203,-0.033C0.178,-0.047 0.156,-0.064 0.136,-0.084C0.116,-0.104 0.099,-0.126 0.085,-0.15C0.071,-0.174 0.06,-0.201 0.052,-0.229C0.044,-0.257 0.041,-0.286 0.041,-0.317ZM0.223,-0.317C0.223,-0.295 0.226,-0.274 0.233,-0.255C0.24,-0.236 0.25,-0.22 0.262,-0.206C0.275,-0.192 0.29,-0.18 0.308,-0.172C0.326,-0.164 0.346,-0.16 0.368,-0.16C0.39,-0.16 0.409,-0.164 0.427,-0.172C0.444,-0.18 0.459,-0.192 0.471,-0.206C0.483,-0.22 0.493,-0.236 0.499,-0.255C0.506,-0.274 0.509,-0.295 0.509,-0.317C0.509,-0.338 0.506,-0.359 0.499,-0.378C0.493,-0.397 0.483,-0.414 0.471,-0.429C0.459,-0.444 0.444,-0.455 0.427,-0.464C0.409,-0.472 0.39,-0.476 0.368,-0.477C0.346,-0.476 0.326,-0.472 0.308,-0.464C0.29,-0.455 0.275,-0.444 0.262,-0.429C0.25,-0.414 0.24,-0.397 0.233,-0.378C0.226,-0.359 0.223,-0.338 0.223,-0.317Z" style="fill:rgb(67,67,67);fill-rule:nonzero;"/>
                    </g>
                    <g transform="matrix(129.717,0,0,129.717,392.668,687.992)">
                        <path d="M0.068,-0.144C0.068,-0.151 0.07,-0.156 0.074,-0.16C0.077,-0.164 0.083,-0.166 0.09,-0.166L0.222,-0.166C0.228,-0.166 0.233,-0.164 0.238,-0.16C0.243,-0.156 0.245,-0.151 0.245,-0.144L0.245,-0.023C0.245,-0.017 0.243,-0.012 0.239,-0.007C0.235,-0.002 0.23,0 0.222,0L0.09,0C0.075,0 0.068,-0.008 0.068,-0.023L0.068,-0.144Z" style="fill:rgb(67,67,67);fill-rule:nonzero;"/>
                    </g>
                </g>
                <g transform="matrix(0.630074,0,0,0.630074,-97.0944,-70.1589)">
                    <g transform="matrix(55.3257,0,0,55.3257,459.927,496.713)">
                        <path d="M0.073,-0.627C0.077,-0.63 0.082,-0.632 0.087,-0.634C0.092,-0.635 0.096,-0.635 0.101,-0.635L0.176,-0.635C0.182,-0.635 0.187,-0.634 0.192,-0.632C0.196,-0.63 0.2,-0.627 0.203,-0.623C0.206,-0.619 0.208,-0.615 0.21,-0.611C0.212,-0.606 0.213,-0.601 0.215,-0.596L0.226,-0.552C0.231,-0.562 0.238,-0.573 0.247,-0.584C0.256,-0.595 0.268,-0.605 0.283,-0.614C0.297,-0.623 0.314,-0.63 0.334,-0.636C0.354,-0.642 0.377,-0.645 0.404,-0.645C0.425,-0.645 0.444,-0.643 0.461,-0.639C0.478,-0.635 0.494,-0.628 0.508,-0.62C0.522,-0.612 0.535,-0.602 0.547,-0.59C0.558,-0.578 0.569,-0.565 0.58,-0.55C0.586,-0.56 0.595,-0.571 0.608,-0.582C0.62,-0.593 0.635,-0.604 0.653,-0.613C0.67,-0.622 0.689,-0.63 0.711,-0.636C0.732,-0.642 0.755,-0.645 0.779,-0.645C0.817,-0.645 0.85,-0.638 0.878,-0.623C0.906,-0.608 0.93,-0.588 0.949,-0.563C0.968,-0.538 0.982,-0.508 0.991,-0.474C1,-0.44 1.005,-0.404 1.005,-0.366L1.005,-0.039C1.005,-0.026 1.002,-0.016 0.997,-0.01C0.991,-0.003 0.983,0 0.971,0L0.855,0C0.841,0 0.831,-0.002 0.826,-0.007C0.82,-0.012 0.818,-0.022 0.818,-0.036L0.818,-0.366C0.818,-0.38 0.815,-0.394 0.811,-0.406C0.806,-0.418 0.8,-0.429 0.792,-0.438C0.784,-0.447 0.774,-0.455 0.763,-0.46C0.751,-0.465 0.739,-0.468 0.725,-0.468C0.712,-0.468 0.7,-0.465 0.689,-0.46C0.677,-0.455 0.667,-0.448 0.659,-0.439C0.65,-0.43 0.643,-0.42 0.638,-0.407C0.633,-0.395 0.63,-0.381 0.63,-0.366L0.63,-0.039C0.63,-0.026 0.627,-0.016 0.622,-0.01C0.616,-0.003 0.608,0 0.596,0L0.585,0L0.581,0L0.48,0C0.466,0 0.456,-0.002 0.451,-0.007C0.445,-0.012 0.443,-0.022 0.443,-0.036L0.443,-0.366C0.443,-0.38 0.44,-0.394 0.436,-0.406C0.432,-0.418 0.426,-0.429 0.418,-0.438C0.41,-0.447 0.401,-0.455 0.39,-0.46C0.379,-0.465 0.366,-0.468 0.352,-0.468C0.34,-0.468 0.328,-0.465 0.317,-0.46C0.305,-0.455 0.295,-0.449 0.286,-0.44C0.277,-0.431 0.269,-0.42 0.263,-0.408C0.257,-0.396 0.253,-0.382 0.252,-0.367L0.252,-0.037C0.252,-0.031 0.251,-0.026 0.249,-0.02C0.247,-0.014 0.243,-0.01 0.239,-0.007C0.235,-0.004 0.231,-0.003 0.227,-0.002C0.223,-0.001 0.219,0 0.214,0L0.101,0C0.086,0 0.076,-0.004 0.07,-0.011C0.063,-0.018 0.06,-0.027 0.06,-0.039L0.06,-0.598C0.06,-0.604 0.061,-0.61 0.064,-0.616C0.067,-0.621 0.071,-0.625 0.076,-0.628L0.073,-0.627Z" style="fill:white;fill-rule:nonzero;"/>
                    </g>
                    <g transform="matrix(55.3257,0,0,55.3257,517.493,496.713)">
                        <path d="M0.238,-0.039C0.235,-0.032 0.232,-0.027 0.23,-0.022C0.228,-0.017 0.226,-0.013 0.223,-0.01C0.221,-0.007 0.218,-0.004 0.214,-0.003C0.21,-0.001 0.205,0 0.199,0L0.1,0C0.073,0 0.06,-0.013 0.06,-0.039L0.06,-0.786C0.06,-0.791 0.061,-0.796 0.063,-0.801C0.065,-0.806 0.068,-0.81 0.072,-0.813C0.075,-0.816 0.079,-0.819 0.084,-0.821C0.088,-0.823 0.093,-0.824 0.097,-0.824L0.211,-0.824C0.223,-0.824 0.233,-0.82 0.241,-0.813C0.248,-0.805 0.252,-0.796 0.252,-0.786L0.252,-0.578C0.261,-0.588 0.271,-0.597 0.282,-0.605C0.292,-0.613 0.304,-0.62 0.316,-0.626C0.329,-0.632 0.343,-0.637 0.358,-0.64C0.373,-0.643 0.389,-0.645 0.408,-0.645C0.453,-0.645 0.495,-0.637 0.533,-0.62C0.571,-0.603 0.604,-0.58 0.631,-0.55C0.659,-0.521 0.68,-0.486 0.696,-0.446C0.711,-0.406 0.719,-0.363 0.719,-0.317C0.719,-0.271 0.711,-0.228 0.696,-0.188C0.68,-0.148 0.659,-0.113 0.631,-0.084C0.604,-0.054 0.571,-0.031 0.533,-0.014C0.495,0.003 0.453,0.012 0.408,0.012C0.391,0.012 0.374,0.009 0.359,0.005C0.343,0.001 0.329,-0.005 0.315,-0.012C0.301,-0.019 0.289,-0.027 0.277,-0.036C0.266,-0.045 0.256,-0.054 0.247,-0.063L0.238,-0.039ZM0.539,-0.317C0.539,-0.338 0.536,-0.359 0.529,-0.378C0.522,-0.397 0.512,-0.414 0.5,-0.429C0.487,-0.444 0.472,-0.455 0.454,-0.464C0.436,-0.472 0.417,-0.476 0.395,-0.477C0.373,-0.476 0.352,-0.472 0.333,-0.464C0.314,-0.455 0.297,-0.444 0.283,-0.429C0.269,-0.414 0.258,-0.397 0.25,-0.378C0.242,-0.359 0.238,-0.338 0.238,-0.317L0.238,-0.31C0.239,-0.289 0.243,-0.269 0.252,-0.251C0.26,-0.233 0.272,-0.217 0.286,-0.203C0.3,-0.19 0.316,-0.179 0.335,-0.172C0.353,-0.164 0.373,-0.16 0.395,-0.16C0.417,-0.16 0.436,-0.164 0.454,-0.172C0.472,-0.18 0.487,-0.192 0.5,-0.206C0.512,-0.22 0.522,-0.236 0.529,-0.255C0.536,-0.274 0.539,-0.295 0.539,-0.317Z" style="fill:white;fill-rule:nonzero;"/>
                    </g>
                </g>
            </g>
        </g>
    </g>
</svg>
