<svg fill="#2b2b2b" id="Layer_1" data-name="Layer 1" xmlns="http://www.w3.org/2000/svg" viewBox="0 0 677.22 66.24"><title>website_by_eternity</title><path d="M41.18,17.38a1.87,1.87,0,0,0-.74-.14H36a1.57,1.57,0,0,0-.77.27,1.24,1.24,0,0,0-.38.68l-.2.81q-.17.6-.31,1.23T34,21.49a2,2,0,0,0,0,.38,1.07,1.07,0,0,1-.09.38,9.89,9.89,0,0,0-.34,1.44,10,10,0,0,1-.34,1.44q-.59,2-1,4t-1,4a9.93,9.93,0,0,0-.34,1.44A10,10,0,0,1,30.56,36q-.14.45-.23.88a2,2,0,0,1-.36.79l-.09.07-.09.07h-.18a1,1,0,0,1-.23-.13,1.94,1.94,0,0,1-.32-.7q-.1-.38-.23-.83a7.3,7.3,0,0,1-.34-1.35,8.68,8.68,0,0,0-.34-1.4q-.5-1.67-.86-3.4t-.86-3.4a6.21,6.21,0,0,1-.27-1c-.07-.35-.14-.67-.23-1a10.87,10.87,0,0,1-.29-1.17,11.22,11.22,0,0,0-.24-1.25q-.22-.81-.41-1.64t-.41-1.64q-.14-.45-.23-.88a1,1,0,0,0-.41-.65,1.39,1.39,0,0,0-.74-.25H18.81a2.61,2.61,0,0,0-.72.09,1.08,1.08,0,0,0-.63.65c-.09.28-.2.59-.32.92A12.58,12.58,0,0,0,16.85,20a7.87,7.87,0,0,1-.34,1.26q-.36,1.27-.63,2.55a25.56,25.56,0,0,1-.68,2.55L15,27l-.18.63a2.48,2.48,0,0,1-.09.54,7.52,7.52,0,0,0-.23.83,7.61,7.61,0,0,1-.23.83,2.82,2.82,0,0,0-.09.41l-.09.36a10.55,10.55,0,0,0-.29,1.19A6.78,6.78,0,0,1,13.48,33l-.09.43-.09.43A6.66,6.66,0,0,0,13,35.07a10.83,10.83,0,0,1-.29,1.19l-.23.68a.7.7,0,0,1-.41.5h-.11a.18.18,0,0,0-.11,0,1.57,1.57,0,0,1-.45-.74q-.09-.25-.27-.92a13.52,13.52,0,0,1-.29-1.35,8.94,8.94,0,0,0-.34-1.35q-.41-1.47-.7-3a29.81,29.81,0,0,0-.74-3q-.14-.54-.23-1.08a5.93,5.93,0,0,0-.27-1,12.44,12.44,0,0,1-.37-1.27,12.87,12.87,0,0,0-.29-1.26,2,2,0,0,1,0-.38,1.08,1.08,0,0,0-.09-.38q-.19-.63-.32-1.28t-.32-1.28q-.14-.53-.25-1a1.26,1.26,0,0,0-.47-.74,1.16,1.16,0,0,0-.77-.23H1.13a.25.25,0,0,1-.21,0,.26.26,0,0,0-.18,0,1.1,1.1,0,0,0-.63.36,1.13,1.13,0,0,0-.07,1c.11.43.19.74.25.95q.32,1,.54,2a19,19,0,0,0,.54,1.94,3.65,3.65,0,0,1,.14.54,3.45,3.45,0,0,0,.13.54,20.38,20.38,0,0,1,.76,2.65q.29,1.35.7,2.66a5.21,5.21,0,0,1,.27.9c.06.3.14.6.23.9s.17.61.25.92.16.62.25.92a9.12,9.12,0,0,1,.34,1.33A7.61,7.61,0,0,0,4.78,36a.72.72,0,0,1,.09.32.84.84,0,0,0,0,.27q.22.67.38,1.37a11.38,11.38,0,0,0,.39,1.34,1.41,1.41,0,0,1,0,.34.75.75,0,0,0,.14.34q.23.77.41,1.53a14.58,14.58,0,0,0,.45,1.53,3.18,3.18,0,0,1,.09.61,2.25,2.25,0,0,0,.11.52q.23.76.43,1.53t.43,1.49a7.69,7.69,0,0,1,.23,1,1,1,0,0,0,.45.74.87.87,0,0,0,.45.2,3.19,3.19,0,0,1,.54.11H14.3a1.51,1.51,0,0,0,.77-.18,1,1,0,0,0,.47-.58l.25-.81a12.27,12.27,0,0,0,.29-1.26,7.71,7.71,0,0,1,.34-1.26,10.28,10.28,0,0,0,.34-1.42,10.07,10.07,0,0,1,.34-1.42q.59-2,1-4.06t1-4q.27-1,.45-2a13.78,13.78,0,0,1,.5-2l.23-.77a.71.71,0,0,1,.45-.54h.18a1.07,1.07,0,0,1,.27.18,1.69,1.69,0,0,1,.25.58,4.75,4.75,0,0,0,.2.68A12.71,12.71,0,0,1,22,31.81a14.88,14.88,0,0,0,.36,1.49q.18.64.29,1.22a8.09,8.09,0,0,0,.29,1.2q.31,1.13.54,2.28a17.79,17.79,0,0,0,.59,2.27,5.27,5.27,0,0,1,.2.83,5.13,5.13,0,0,0,.2.83,11.63,11.63,0,0,1,.29,1.15,9,9,0,0,0,.29,1.1q.23.9.41,1.78t.45,1.78a6.58,6.58,0,0,1,.23.7,1.08,1.08,0,0,0,.36.56,1.4,1.4,0,0,0,.77.25h4.68a2.8,2.8,0,0,0,.77-.09,1.07,1.07,0,0,0,.68-.72q.13-.49.31-1.08a16.42,16.42,0,0,0,.47-1.6q.2-.83.43-1.6a5.46,5.46,0,0,0,.14-.58,5,5,0,0,1,.14-.59,29,29,0,0,0,1-3.42q.38-1.76.92-3.47c.09-.3.17-.59.25-.88s.16-.58.25-.88a7.75,7.75,0,0,0,.34-1.28A7.66,7.66,0,0,1,38,31.82a1.11,1.11,0,0,0,.09-.41,1.1,1.1,0,0,1,.09-.41,6.88,6.88,0,0,0,.33-1.12,6.83,6.83,0,0,1,.34-1.17,1.66,1.66,0,0,0,.11-.45,1.64,1.64,0,0,1,.11-.45q.23-.77.43-1.6t.43-1.6a3.85,3.85,0,0,0,.14-.52,3.64,3.64,0,0,1,.14-.52,21.22,21.22,0,0,0,.61-2.23,18.45,18.45,0,0,1,.61-2.19,4.85,4.85,0,0,0,.18-1A.71.71,0,0,0,41.18,17.38Z" transform="translate(0.03 0)"/><path d="M69,43.57a1.34,1.34,0,0,0-.61-.13H54.52a1.74,1.74,0,0,1-.5,0h-.45a1.7,1.7,0,0,0-.43-.11.54.54,0,0,1-.34-.16.94.94,0,0,1-.38-.65,6.27,6.27,0,0,1-.07-1V36.81a2.39,2.39,0,0,1,0-.47,1.15,1.15,0,0,1,.43-.61,1.71,1.71,0,0,1,.72-.27,4.62,4.62,0,0,1,.92,0H66a7.35,7.35,0,0,0,.86,0,1.51,1.51,0,0,0,.61-.18,1.08,1.08,0,0,0,.36-.59,1.46,1.46,0,0,0,.09-.54V31.66a5.25,5.25,0,0,0-.11-.88.8.8,0,0,0-.32-.54,1.19,1.19,0,0,0-.56-.18L66,30H53.39a1.25,1.25,0,0,1-.63-.2.72.72,0,0,1-.32-.38,6.11,6.11,0,0,1-.18-.61V25a6.27,6.27,0,0,1,.07-1,.94.94,0,0,1,.38-.65,1.38,1.38,0,0,1,.59-.2,7.69,7.69,0,0,1,.88-.09h13.9a1.19,1.19,0,0,0,.68-.18,1.08,1.08,0,0,0,.45-.72,3.72,3.72,0,0,1,0-.68,3.21,3.21,0,0,0,0-.65V19.4a3.4,3.4,0,0,0,0-.68v-.5a1.09,1.09,0,0,1-.11-.36.73.73,0,0,0-.11-.32.94.94,0,0,0-.72-.36H46.5a.25.25,0,0,1-.18,0,.26.26,0,0,0-.18,0,1.06,1.06,0,0,0-.86,1.08V48.09a1.23,1.23,0,0,0,.18.7.93.93,0,0,0,.7.43,7.92,7.92,0,0,0,1.1.07H68.48a1,1,0,0,0,.7-.23.87.87,0,0,0,.41-.7V44.61a1.83,1.83,0,0,0-.11-.54A.81.81,0,0,0,69,43.57Z" transform="translate(0.03 0)"/><path d="M101.24,38a3.18,3.18,0,0,0-.18-.74,8.26,8.26,0,0,0-1.13-2.43,7.48,7.48,0,0,0-2-1.89q-.36-.22-.86-.47a1,1,0,0,1-.59-.61.38.38,0,0,1,0-.38,1.94,1.94,0,0,1,.2-.25,2.33,2.33,0,0,1,.63-.59,3.78,3.78,0,0,0,.68-.54,7.83,7.83,0,0,0,1.53-2.66,1.69,1.69,0,0,0,.11-.47,3,3,0,0,1,.11-.56,2.29,2.29,0,0,1,0-.27,2.64,2.64,0,0,0,0-.32v-.41a1,1,0,0,0,.07-.29.8.8,0,0,0,0-.34,1,1,0,0,1,0-.36,1,1,0,0,0,0-.36,3.92,3.92,0,0,1-.11-.68,3.15,3.15,0,0,0-.11-.63,8.94,8.94,0,0,0-1-2.16A5.33,5.33,0,0,0,97.14,19a6.23,6.23,0,0,0-1.4-.74l-1.62-.61a6.3,6.3,0,0,0-.7-.14,6.06,6.06,0,0,1-.7-.13,1.74,1.74,0,0,0-.61-.07,1.4,1.4,0,0,1-.56-.07h-.27a1.17,1.17,0,0,0-.45,0,.77.77,0,0,1-.45,0,2.55,2.55,0,0,0-.59,0h-14a.25.25,0,0,1-.18,0,.26.26,0,0,0-.18,0,1,1,0,0,0-.68.45,1.69,1.69,0,0,0-.2,1V47.35a3.07,3.07,0,0,0,.11,1.1.9.9,0,0,0,.74.61,10.22,10.22,0,0,0,1.28.07H90.27a1.06,1.06,0,0,0,.38,0,.72.72,0,0,1,.43,0,.82.82,0,0,0,.38,0,2.16,2.16,0,0,1,.43,0,2.17,2.17,0,0,0,.43,0l1-.16a4.74,4.74,0,0,0,1-.25,19.2,19.2,0,0,0,1.87-.7,9.25,9.25,0,0,0,1.64-.92,8.61,8.61,0,0,0,2.93-3.69,5.8,5.8,0,0,0,.23-.77q.09-.41.18-.86a11.77,11.77,0,0,0,.16-1.26,5.17,5.17,0,0,0,0-1.31l0-.5A5.79,5.79,0,0,1,101.24,38ZM81.5,28.48a2.16,2.16,0,0,1,0-.56v-4a1.32,1.32,0,0,1,.23-.79,1.1,1.1,0,0,1,.64-.51.45.45,0,0,1,.2,0,.45.45,0,0,0,.2,0h5.15a4.55,4.55,0,0,1,1.24.11,2.46,2.46,0,0,1,.54,0l.68.16A5.65,5.65,0,0,1,91,23a3.64,3.64,0,0,1,1.58,1.37A4.12,4.12,0,0,1,93,26.78a4.06,4.06,0,0,1-.41,1.53,3.59,3.59,0,0,1-2,1.58,4.86,4.86,0,0,1-1.17.25,13.88,13.88,0,0,1-1.42.07H83.19a4.65,4.65,0,0,1-.86-.11,1,1,0,0,1-.56-.32,1.63,1.63,0,0,1-.14-.38c0-.13-.07-.29-.13-.47ZM94.35,39.93v.29l-.27,1a3,3,0,0,1-1.78,2,7.62,7.62,0,0,1-2,.54,15.16,15.16,0,0,1-2.39.13H83.29a4.11,4.11,0,0,1-.92-.13,1.09,1.09,0,0,1-.59-.34,1.6,1.6,0,0,1-.25-.88V36.37a1.71,1.71,0,0,1,.23-.92,1.08,1.08,0,0,1,.72-.45h7.29a7.29,7.29,0,0,1,1.69.25,3.81,3.81,0,0,1,2.48,2.25,5,5,0,0,1,.34,1.08A3.81,3.81,0,0,1,94.35,39.93Z" transform="translate(0.03 0)"/><path d="M130.86,37.73a.44.44,0,0,1,0-.2.79.79,0,0,0,0-.25q-.18-.45-.34-.9a4.13,4.13,0,0,0-.38-.81,8.94,8.94,0,0,0-1.64-2A17,17,0,0,0,126.4,32a6.31,6.31,0,0,0-1.73-.77q-1-.27-1.87-.58a1.2,1.2,0,0,0-.45-.09,1.19,1.19,0,0,1-.45-.09q-1.27-.36-2.55-.65a25.58,25.58,0,0,1-2.5-.7,10.25,10.25,0,0,0-1.06-.29,4.94,4.94,0,0,1-1-.34,11.63,11.63,0,0,1-1.55-.74,2.48,2.48,0,0,1-1-1.33,2.4,2.4,0,0,1-.14-.61,1.76,1.76,0,0,1,0-.7,3.6,3.6,0,0,1,.79-1.83,4.7,4.7,0,0,1,1.6-1.06,5.07,5.07,0,0,1,1.44-.36,10,10,0,0,1,1.64,0,11.53,11.53,0,0,1,1.62.2,7.23,7.23,0,0,1,1.33.38,11.72,11.72,0,0,1,1.22.77,2.87,2.87,0,0,1,.68.77,5.91,5.91,0,0,1,.5.95,6.68,6.68,0,0,1,.36,1,1.07,1.07,0,0,0,.68.72,2.15,2.15,0,0,0,.68.09h3.65a5.52,5.52,0,0,0,.9-.07,1,1,0,0,0,.63-.34,1.21,1.21,0,0,0,.2-.7,2.91,2.91,0,0,0-.07-.83q-.22-.9-.47-1.67a6.7,6.7,0,0,0-.7-1.49q-3.26-5.31-12-5.18c-.06.06-.14.07-.34,0a1,1,0,0,0-.43,0,6,6,0,0,1-.88.11,6.26,6.26,0,0,0-.88.11Q113,17,112,17.36a8.61,8.61,0,0,0-1.94.86,13.58,13.58,0,0,0-2.46,2,8.87,8.87,0,0,0-1.91,2.69,5.12,5.12,0,0,0-.27.9c-.07.3-.14.62-.23,1a2.45,2.45,0,0,1,0,.54,5.42,5.42,0,0,0,0,1.26,7.78,7.78,0,0,0,.14,1.17q.14.49.23.92a4.12,4.12,0,0,0,.27.83,6.85,6.85,0,0,0,1.35,2.07,10.52,10.52,0,0,0,1.89,1.58,11.79,11.79,0,0,0,1.76.88l2,.74.65.18.65.18a.72.72,0,0,0,.32.09,1,1,0,0,1,.36.09,12.86,12.86,0,0,0,1.42.38,13.82,13.82,0,0,1,1.46.38l.65.16.61.16c.54.18,1.08.36,1.64.52a6.57,6.57,0,0,1,1.51.65,5.63,5.63,0,0,1,.5.27,3.67,3.67,0,0,1,1.55,1.91,3.21,3.21,0,0,1,.16.63,1.63,1.63,0,0,1,0,.72,3.74,3.74,0,0,1-1.26,2.25,7.08,7.08,0,0,1-2.43,1.08,1.66,1.66,0,0,1-.47.11l-.47.07a1.57,1.57,0,0,0-.45,0,5.51,5.51,0,0,1-2,0H117a2.7,2.7,0,0,0-.65-.09,2.19,2.19,0,0,1-.61-.09,9.11,9.11,0,0,1-2.43-1,6.09,6.09,0,0,1-.54-.41,3.84,3.84,0,0,1-.5-.5,8.52,8.52,0,0,1-.59-.86,4.94,4.94,0,0,1-.45-1,4.93,4.93,0,0,1-.32-1.06,1,1,0,0,0-.59-.74,1.82,1.82,0,0,0-.72-.13h-3.53a6.27,6.27,0,0,0-1,.07.9.9,0,0,0-.65.43,1,1,0,0,0-.18.79,5.61,5.61,0,0,0,.14.88,3.19,3.19,0,0,1,.11.59,2.27,2.27,0,0,0,.11.54,8.75,8.75,0,0,0,1.13,2.56,9.4,9.4,0,0,0,2.79,2.91,15.88,15.88,0,0,0,3.87,1.83,5.72,5.72,0,0,0,1.08.27,11.29,11.29,0,0,1,1.13.23l.25,0h.41a1.6,1.6,0,0,0,.61.07,1.88,1.88,0,0,1,.65.07H117a6.56,6.56,0,0,0,1.53,0,.42.42,0,0,1,.25,0h.61a1.4,1.4,0,0,1,.56-.07,1.74,1.74,0,0,0,.61-.07q.67-.13,1.35-.2a5.48,5.48,0,0,0,1.31-.29l1.73-.63a8.35,8.35,0,0,0,1.6-.81l.52-.36.47-.36a6.2,6.2,0,0,0,.59-.47,5.31,5.31,0,0,0,.5-.52,1.6,1.6,0,0,1,.32-.38,3,3,0,0,0,.36-.38,8.21,8.21,0,0,0,.77-1.31,14,14,0,0,0,.59-1.49,6.54,6.54,0,0,0,.2-.9q.07-.45.16-1V40a.59.59,0,0,0,0-.45A7.61,7.61,0,0,0,130.86,37.73Z" transform="translate(0.03 0)"/><path d="M141.47,17.22h-4.83l-.16,0h-.25a1.32,1.32,0,0,0-.59.45,2.29,2.29,0,0,0-.2,1.22V47.41a9.45,9.45,0,0,0,0,1,1.07,1.07,0,0,0,.27.68,1.26,1.26,0,0,0,.7.27,8.76,8.76,0,0,0,.92,0H140a5.76,5.76,0,0,1,.72,0,1.7,1.7,0,0,0,.68,0,1.3,1.3,0,0,0,.81-.5,2,2,0,0,0,.2-1.08V18.37a1.48,1.48,0,0,0-.25-.81A.83.83,0,0,0,141.47,17.22Z" transform="translate(0.03 0)"/><path d="M172.16,17.43a1.88,1.88,0,0,0-.92-.25h-5.75v0H147.24a1.76,1.76,0,0,0-.5.18.92.92,0,0,0-.43.68,7.09,7.09,0,0,0-.07,1V22a1.28,1.28,0,0,0,.16.59,1.08,1.08,0,0,0,.54.41,3.56,3.56,0,0,0,1,.07h5.3q.94,0,1.64.07a1,1,0,0,1,.92.83.51.51,0,0,1,0,.36.91.91,0,0,0,0,.41,1.59,1.59,0,0,1,.07.61V48a1.71,1.71,0,0,0,.23.92.94.94,0,0,0,.65.32,8.76,8.76,0,0,0,.92,0h3.83a2.61,2.61,0,0,0,.72-.09.91.91,0,0,0,.56-.74,9.74,9.74,0,0,0,.07-1.24V25.31a2.6,2.6,0,0,1,0-.61.66.66,0,0,0,0-.41.91.91,0,0,1,0-.41,1,1,0,0,1,.88-.83,15.43,15.43,0,0,1,1.55-.07h6.22a1,1,0,0,0,.9-.81,1.43,1.43,0,0,0,.07-.56V18.79a1.69,1.69,0,0,0,0-.41v-.23a3.66,3.66,0,0,0-.11-.43A.55.55,0,0,0,172.16,17.43Z" transform="translate(0.03 0)"/><path d="M200,43.57a1.34,1.34,0,0,0-.61-.13h-14a1.74,1.74,0,0,1-.5,0h-.45a1.7,1.7,0,0,0-.43-.11.54.54,0,0,1-.34-.16.94.94,0,0,1-.38-.65,6.27,6.27,0,0,1-.07-1V36.81a2.39,2.39,0,0,1,0-.47,1.15,1.15,0,0,1,.43-.61,1.71,1.71,0,0,1,.72-.27,4.62,4.62,0,0,1,.92,0h11.53a7.35,7.35,0,0,0,.86,0,1.51,1.51,0,0,0,.61-.18,1.08,1.08,0,0,0,.36-.59,1.46,1.46,0,0,0,.09-.54v-.63q0-.33,0-.86t0-1a5.25,5.25,0,0,0-.11-.88.8.8,0,0,0-.32-.54,1.19,1.19,0,0,0-.56-.18L197,30H184.36a1.25,1.25,0,0,1-.63-.2.72.72,0,0,1-.32-.38,6.11,6.11,0,0,1-.18-.61V25a6.28,6.28,0,0,1,.07-1,.94.94,0,0,1,.38-.65,1.38,1.38,0,0,1,.59-.2,7.69,7.69,0,0,1,.88-.09h13.9a1.19,1.19,0,0,0,.68-.18,1.08,1.08,0,0,0,.45-.72,3.72,3.72,0,0,1,0-.68,3.2,3.2,0,0,0,0-.65V19.4a3.39,3.39,0,0,0,0-.68v-.5a1.09,1.09,0,0,1-.11-.36.73.73,0,0,0-.11-.32.94.94,0,0,0-.72-.36H177.47a.25.25,0,0,1-.17,0,.26.26,0,0,0-.18,0,1.06,1.06,0,0,0-.86,1.08V48.09a1.23,1.23,0,0,0,.18.7.93.93,0,0,0,.7.43,7.92,7.92,0,0,0,1.1.07h21.31a1,1,0,0,0,.7-.23.87.87,0,0,0,.41-.7V44.61a1.83,1.83,0,0,0-.11-.54A.81.81,0,0,0,200,43.57Z" transform="translate(0.03 0)"/><path d="M244.87,38.73a5.79,5.79,0,0,1-.14-.74,3.18,3.18,0,0,0-.18-.74,8.26,8.26,0,0,0-1.13-2.43,7.48,7.48,0,0,0-2-1.89q-.36-.22-.86-.47a1,1,0,0,1-.59-.61.38.38,0,0,1,0-.38,1.94,1.94,0,0,1,.2-.25,2.33,2.33,0,0,1,.63-.59,3.78,3.78,0,0,0,.68-.54A7.83,7.83,0,0,0,243,27.43a1.69,1.69,0,0,0,.11-.47,3,3,0,0,1,.11-.56,2.29,2.29,0,0,1,0-.27,2.64,2.64,0,0,0,0-.32V25.4a1,1,0,0,0,.07-.29.8.8,0,0,0,0-.34,1,1,0,0,1,0-.36,1,1,0,0,0,0-.36,3.93,3.93,0,0,1-.11-.68,3.15,3.15,0,0,0-.11-.63,8.94,8.94,0,0,0-1-2.16A5.33,5.33,0,0,0,240.64,19a6.23,6.23,0,0,0-1.42-.79l-1.62-.61a6.29,6.29,0,0,0-.7-.14,6.05,6.05,0,0,1-.7-.13,1.74,1.74,0,0,0-.61-.07,1.4,1.4,0,0,1-.56-.07h-.27a1.17,1.17,0,0,0-.45,0,.77.77,0,0,1-.45,0,2.55,2.55,0,0,0-.59,0h-14a.25.25,0,0,1-.18,0,.26.26,0,0,0-.18,0,1,1,0,0,0-.68.45,1.69,1.69,0,0,0-.2,1V47.35a3.07,3.07,0,0,0,.11,1.1.9.9,0,0,0,.74.61,10.22,10.22,0,0,0,1.28.07h13.63a1.06,1.06,0,0,0,.38,0,.72.72,0,0,1,.43,0,.82.82,0,0,0,.38,0,2.16,2.16,0,0,1,.43,0,2.17,2.17,0,0,0,.43,0l1-.16a4.74,4.74,0,0,0,1-.25,19.2,19.2,0,0,0,1.87-.7,9.25,9.25,0,0,0,1.64-.92,8.61,8.61,0,0,0,2.93-3.69,5.8,5.8,0,0,0,.23-.77q.09-.41.18-.86a11.77,11.77,0,0,0,.16-1.26,5.17,5.17,0,0,0,0-1.31ZM225,28.48a2.16,2.16,0,0,1,0-.56v-4a1.32,1.32,0,0,1,.23-.79,1.1,1.1,0,0,1,.63-.51.45.45,0,0,1,.2,0,.45.45,0,0,0,.2,0h5.16a4.55,4.55,0,0,1,1.24.11,2.46,2.46,0,0,1,.54,0l.68.16a5.65,5.65,0,0,1,.59.16A3.64,3.64,0,0,1,236,24.37a4.12,4.12,0,0,1,.45,2.41,4.06,4.06,0,0,1-.41,1.53,3.59,3.59,0,0,1-2,1.58,4.86,4.86,0,0,1-1.17.25,13.88,13.88,0,0,1-1.42.07h-4.81a4.65,4.65,0,0,1-.86-.11,1,1,0,0,1-.56-.32,1.63,1.63,0,0,1-.14-.38c0-.13-.07-.29-.13-.47Zm12.85,11.45,0,.34-.27,1a3,3,0,0,1-1.78,2,7.62,7.62,0,0,1-2,.54,15.15,15.15,0,0,1-2.39.13h-4.62a4.11,4.11,0,0,1-.92-.13,1.09,1.09,0,0,1-.59-.34,1.6,1.6,0,0,1-.25-.88V36.42a1.71,1.71,0,0,1,.23-.92,1.08,1.08,0,0,1,.72-.45h.16a.18.18,0,0,0,.16-.07h7a7.29,7.29,0,0,1,1.69.27,3.81,3.81,0,0,1,2.48,2.25,5,5,0,0,1,.34,1.08A3.81,3.81,0,0,1,237.85,39.93Z" transform="translate(0.03 0)"/><path d="M276.13,17.3a1.34,1.34,0,0,0-.61-.16h-4.77a2.5,2.5,0,0,0-1.28.18,2.16,2.16,0,0,0-1,1q-.41.76-.77,1.35-.95,1.57-1.85,3.13T264,25.89q-.41.63-.74,1.26t-.74,1.26l-.36.45a.57.57,0,0,1-.54.22,1,1,0,0,1-.72-.52q-.22-.43-.45-.79-.59-.9-1.08-1.83t-1.08-1.83q-.77-1.22-1.44-2.43t-1.44-2.43a10.61,10.61,0,0,1-.65-1.08,1.85,1.85,0,0,0-.83-.86,2.13,2.13,0,0,0-1-.18h-5.09a.25.25,0,0,1-.05.08.26.26,0,0,0-.18,0l-.34.11a.5.5,0,0,0-.25.25.72.72,0,0,0,.07.74,6.62,6.62,0,0,0,.38.61q.5.9,1,1.73l1,1.73q1.13,1.84,2.21,3.69t2.25,3.7a6.8,6.8,0,0,1,.63,1.06,6.72,6.72,0,0,0,.63,1.06q.45.72.86,1.42l.81,1.42q.36.48.68,1a4.92,4.92,0,0,1,.5,1.22,1.39,1.39,0,0,1,.09.52V48.32a1,1,0,0,0,.23.63.92.92,0,0,0,.63.32,8.17,8.17,0,0,0,.9,0h4a1.24,1.24,0,0,0,.7-.18,1.35,1.35,0,0,0,.52-1.31V38.31a1,1,0,0,1,0-.32,1.42,1.42,0,0,0,0-.43,1.37,1.37,0,0,1,0-.43,4.76,4.76,0,0,1,.47-1.13q.29-.5.65-1l.88-1.54q.42-.74.92-1.46,1.32-2.43,2.79-4.87t3-4.87l1.06-1.78L276,18.7a4.69,4.69,0,0,0,.32-.7A.52.52,0,0,0,276.13,17.3Z" transform="translate(0.03 0)"/><path d="M404.9,48.47a1.89,1.89,0,0,0-.86-.19h-19.7a2.45,2.45,0,0,1-.7,0h-.56a2.38,2.38,0,0,0-.6-.16.77.77,0,0,1-.48-.22,1.33,1.33,0,0,1-.54-.92,8.84,8.84,0,0,1-.1-1.37V39a3.39,3.39,0,0,1,.06-.67,1.63,1.63,0,0,1,.6-.86,2.43,2.43,0,0,1,1-.38,6.49,6.49,0,0,1,1.3-.06h16.31a10.31,10.31,0,0,0,1.21-.06,2.17,2.17,0,0,0,.86-.25,1.53,1.53,0,0,0,.51-.83,2.06,2.06,0,0,0,.13-.76V31.62a7.45,7.45,0,0,0-.16-1.24,1.12,1.12,0,0,0-.45-.76,1.68,1.68,0,0,0-.8-.25,6.6,6.6,0,0,0-1.18-.1H382.89A1.76,1.76,0,0,1,382,29a1,1,0,0,1-.45-.54,8.4,8.4,0,0,1-.25-.86V22.11a8.85,8.85,0,0,1,.1-1.37,1.34,1.34,0,0,1,.54-.92,2,2,0,0,1,.83-.29A10.79,10.79,0,0,1,384,19.4h19.56a1.68,1.68,0,0,0,1-.25,1.52,1.52,0,0,0,.64-1,5.26,5.26,0,0,1,.06-1,4.49,4.49,0,0,0,0-.92v-2a4.75,4.75,0,0,0,0-1v-.7a1.54,1.54,0,0,1-.16-.51,1,1,0,0,0-.16-.45,1.33,1.33,0,0,0-1-.51q-.7-.06-1.46-.06H373.17a.35.35,0,0,1-.23.38.36.36,0,0,0-.25,0,1.48,1.48,0,0,0-1,.64,1.39,1.39,0,0,0-.25.89v42a1.74,1.74,0,0,0,.25,1,1.31,1.31,0,0,0,1,.6,11.13,11.13,0,0,0,1.56.1h29.88a1.49,1.49,0,0,0,1-.32,1.23,1.23,0,0,0,.57-1q.06-.67.06-1.43V49.93a2.6,2.6,0,0,0-.16-.76A1.15,1.15,0,0,0,404.9,48.47Z" transform="translate(0.03 0)"/><path d="M446.19,12.36a5.1,5.1,0,0,0-.16-.6.77.77,0,0,0-.29-.41,2.64,2.64,0,0,0-1.3-.35h-8.11l0,0H410.61a2.49,2.49,0,0,0-.7.25,1.29,1.29,0,0,0-.6,1,10,10,0,0,0-.1,1.46v4.09a1.81,1.81,0,0,0,.22.83,1.52,1.52,0,0,0,.76.57,5,5,0,0,0,1.37.1H419q1.32,0,2.32.1a1.45,1.45,0,0,1,1.3,1.18.72.72,0,0,1,.06.51,1.29,1.29,0,0,0,0,.57,2.24,2.24,0,0,1,.1.86V54.43a2.42,2.42,0,0,0,.32,1.3,1.32,1.32,0,0,0,.92.45,12.41,12.41,0,0,0,1.3.06h5.41a3.69,3.69,0,0,0,1-.13,1.28,1.28,0,0,0,.79-1,13.72,13.72,0,0,0,.1-1.75V22.5a3.68,3.68,0,0,1,0-.86.93.93,0,0,0,.06-.57,1.29,1.29,0,0,1,0-.57A1.43,1.43,0,0,1,434,19.32a21.72,21.72,0,0,1,2.19-.1h6.45q1.29,0,2.29-.06A1.38,1.38,0,0,0,446.15,18a2,2,0,0,0,.1-.79v-4a2.4,2.4,0,0,0-.06-.57Z" transform="translate(0.03 0)"/><path d="M485,48.47a1.89,1.89,0,0,0-.86-.19h-19.7a2.45,2.45,0,0,1-.7,0h-.64a2.38,2.38,0,0,0-.6-.16.77.77,0,0,1-.48-.22,1.33,1.33,0,0,1-.54-.92,8.83,8.83,0,0,1-.1-1.37V39a3.39,3.39,0,0,1,.06-.67,1.63,1.63,0,0,1,.6-.86,2.42,2.42,0,0,1,1-.38,6.49,6.49,0,0,1,1.3-.06h16.36a10.31,10.31,0,0,0,1.21-.06,2.17,2.17,0,0,0,.86-.25,1.53,1.53,0,0,0,.51-.83,2.06,2.06,0,0,0,.13-.76V34.2q0-.51,0-1.21t0-1.37a7.41,7.41,0,0,0-.16-1.24,1.13,1.13,0,0,0-.45-.76,1.67,1.67,0,0,0-.8-.25,6.6,6.6,0,0,0-1.18-.1H463a1.76,1.76,0,0,1-.89-.29,1,1,0,0,1-.45-.54,8.4,8.4,0,0,1-.25-.86V22.11a8.85,8.85,0,0,1,.1-1.37,1.34,1.34,0,0,1,.54-.92,2,2,0,0,1,.83-.29,10.79,10.79,0,0,1,1.24-.13h19.53a1.68,1.68,0,0,0,1-.25,1.52,1.52,0,0,0,.64-1,5.25,5.25,0,0,1,.06-1,4.47,4.47,0,0,0,0-.92v-2a4.74,4.74,0,0,0,0-1v-.7a1.55,1.55,0,0,1-.16-.51,1,1,0,0,0-.16-.45,1.33,1.33,0,0,0-1-.51,11.48,11.48,0,0,0-1.46-.06H453.25a.35.35,0,0,1-.23.38.36.36,0,0,0-.25,0,1.48,1.48,0,0,0-1,.64,1.39,1.39,0,0,0-.25.89v42a1.74,1.74,0,0,0,.25,1,1.31,1.31,0,0,0,1,.6,11.13,11.13,0,0,0,1.56.1h29.94a1.49,1.49,0,0,0,1-.32,1.23,1.23,0,0,0,.57-1q.06-.67.06-1.43V49.93a2.58,2.58,0,0,0-.16-.76A1.15,1.15,0,0,0,485,48.47Z" transform="translate(0.03 0)"/><path d="M530.5,53.86l-.25-1.15-.19-1.14a6.75,6.75,0,0,1-.13-1.34,6.84,6.84,0,0,0-.13-1.34,1.75,1.75,0,0,1,0-.57,1.39,1.39,0,0,0,0-.51,1.93,1.93,0,0,1,0-.6,1.55,1.55,0,0,0,0-.54V45.21a7.13,7.13,0,0,1-.16-1.21,7.35,7.35,0,0,0-.17-1.25,24,24,0,0,0-.83-2.61,10.4,10.4,0,0,0-1.11-2.27,5,5,0,0,0-1.08-1.21l-1.27-1a3,3,0,0,1-.45-.38.57.57,0,0,1-.13-.64,1.4,1.4,0,0,1,.38-.54l.51-.41q.45-.32.83-.64l.76-.64a3.18,3.18,0,0,0,.48-.45l.41-.51a4.4,4.4,0,0,1,.32-.41,4.45,4.45,0,0,0,.32-.41,7.85,7.85,0,0,0,.83-1.62q.32-.81.64-1.81a3.13,3.13,0,0,0,.13-.86,3.82,3.82,0,0,1,.13-.92,6.51,6.51,0,0,0,.19-1.18,3.85,3.85,0,0,0-.06-1.24v-.5a.86.86,0,0,1-.1-.51,1.4,1.4,0,0,0,0-.51q-.32-1.1-.57-2.1a7.74,7.74,0,0,0-.76-1.84,3.11,3.11,0,0,1-.41-.67,3.23,3.23,0,0,0-.41-.67A9.76,9.76,0,0,0,526,13.85a14.39,14.39,0,0,0-2.93-1.72,7.65,7.65,0,0,0-.89-.32l-.89-.25a1.79,1.79,0,0,0-.67-.13,1.77,1.77,0,0,1-.67-.13,9.23,9.23,0,0,0-1.75-.22H494.63a.43.43,0,0,1-.29,0,.44.44,0,0,0-.29,0,1.87,1.87,0,0,0-1,.64,1.89,1.89,0,0,0-.29,1.21V54.6a1.27,1.27,0,0,0,.51,1.18,2.64,2.64,0,0,0,1.72.41h6a2,2,0,0,0,.76-.13,1.15,1.15,0,0,0,.76-.76,2,2,0,0,0,.13-.73V43.51q0-1.08-.06-2.42a2.9,2.9,0,0,1,.45-2,1,1,0,0,1,.64-.38q.38-.06.89-.19h8.17a8.34,8.34,0,0,1,2.64.38,5.64,5.64,0,0,0,.7.19,3.69,3.69,0,0,1,.64.19,4.34,4.34,0,0,1,2,1.72,13.55,13.55,0,0,1,1.25,2.72,10.78,10.78,0,0,1,.29,1.43q.09.73.22,1.43a1.92,1.92,0,0,0,.06.57,8.79,8.79,0,0,1,.13,1.56,6.67,6.67,0,0,0,.19,1.62,2.84,2.84,0,0,0,0,.41,3.48,3.48,0,0,1,0,.48,13.11,13.11,0,0,1,.32,2.29,4.24,4.24,0,0,0,.57,2,1.48,1.48,0,0,0,1.14.73,14.51,14.51,0,0,0,1.78.1h5a1.47,1.47,0,0,0,1-.29,1.12,1.12,0,0,0,.35-.45.89.89,0,0,0,0-.7A3.57,3.57,0,0,0,530.5,53.86Zm-10-27.64q-.19.89-.31,1.58a4.31,4.31,0,0,1-.57,1.27,4.66,4.66,0,0,1-1.4,1.34,7.82,7.82,0,0,1-1.91.83,3.32,3.32,0,0,1-.92.13,4.07,4.07,0,0,0-1,.13h-.83a2.33,2.33,0,0,1-.89.1h-6.11a10.93,10.93,0,0,1-1.46,0,9.85,9.85,0,0,1-1.27-.19,1.27,1.27,0,0,1-.83-.51,2,2,0,0,1-.32-1.21v-9a2.25,2.25,0,0,1,.29-1.3,1.52,1.52,0,0,1,1-.64h.25a.26.26,0,0,0,.25-.1h7.34q1.53,0,2.93.06a6.48,6.48,0,0,1,2.48.57,5,5,0,0,1,2.8,2.86.69.69,0,0,1,.13.38,1,1,0,0,0,.13.45,11.12,11.12,0,0,1,.22,1.53A6.44,6.44,0,0,1,520.47,26.22Z" transform="translate(0.03 0)"/><path d="M574.73,11.13a2.83,2.83,0,0,0-.89-.13h-4.9a10.86,10.86,0,0,0-1.24.09,1.19,1.19,0,0,0-.86.51,2.29,2.29,0,0,0-.38,1.4v.68a1.65,1.65,0,0,0,0,.57V37a5,5,0,0,1,0,1,3.93,3.93,0,0,0-.13,1,.55.55,0,0,1-.45.57.32.32,0,0,1-.38,0,2,2,0,0,1-.32-.25,2.64,2.64,0,0,1-.6-.7q-.23-.38-.48-.76-1.14-1.65-2.19-3.4T559.78,31q-2.22-3.58-4.47-7.17t-4.48-7.22L548.54,13l-.67-1a2.12,2.12,0,0,0-1-.76,2.35,2.35,0,0,0-1.18-.22h-6.52l-.31.07h-.29a1.44,1.44,0,0,0-.89.64,2.43,2.43,0,0,0-.25,1.21V53.13a16.79,16.79,0,0,0,.1,1.91,1.33,1.33,0,0,0,.92,1.14,2.8,2.8,0,0,0,.89.13h4.9a10.69,10.69,0,0,0,1.24-.06,1.26,1.26,0,0,0,.86-.45,2.58,2.58,0,0,0,.32-1.46v-.7a1.34,1.34,0,0,0,.1-.64,6.15,6.15,0,0,1,0-.64V28.74a1.43,1.43,0,0,1,.54-1,1.26,1.26,0,0,1,1.11.67q.41.67.73,1.11.89,1.46,1.75,2.83t1.75,2.83l9.54,15.27q.57.89,1.11,1.81t1.11,1.81q.38.64.76,1.18a2.59,2.59,0,0,0,1.08.86,2,2,0,0,0,.92.19H574l.86-.22a1.08,1.08,0,0,0,.6-.48,1.8,1.8,0,0,0,.22-1.08V14.12q0-1.08-.06-1.88A1.25,1.25,0,0,0,574.73,11.13Z" transform="translate(0.03 0)"/><path d="M591.15,52.23V12.7a2.1,2.1,0,0,0-.35-1.14,1.18,1.18,0,0,0-1-.48H583l-.3,0a1.76,1.76,0,0,1-.35,0,1.87,1.87,0,0,0-.83.64,3.23,3.23,0,0,0-.29,1.72v40.1a13.33,13.33,0,0,0,.06,1.34,1.51,1.51,0,0,0,.38,1,1.78,1.78,0,0,0,1,.38,12.28,12.28,0,0,0,1.3.06h3.75a8.09,8.09,0,0,1,1,.06,2.39,2.39,0,0,0,1-.06,1.83,1.83,0,0,0,1.15-.7,2.77,2.77,0,0,0,.29-1.53Z" transform="translate(0.03 0)"/><path d="M633,12.36a5.14,5.14,0,0,0-.16-.6.77.77,0,0,0-.29-.41,2.64,2.64,0,0,0-1.3-.35h-8.14l0,0H597.38a2.48,2.48,0,0,0-.7.25,1.29,1.29,0,0,0-.6,1,9.94,9.94,0,0,0-.1,1.46v4.09a1.81,1.81,0,0,0,.22.83,1.52,1.52,0,0,0,.76.57,5,5,0,0,0,1.37.1h7.47q1.32,0,2.32.1a1.45,1.45,0,0,1,1.3,1.18.72.72,0,0,1,.06.51,1.29,1.29,0,0,0,0,.57,2.24,2.24,0,0,1,.1.86V54.43a2.42,2.42,0,0,0,.32,1.3,1.32,1.32,0,0,0,.92.45,12.41,12.41,0,0,0,1.3.06h5.41a3.7,3.7,0,0,0,1-.13,1.28,1.28,0,0,0,.8-1,13.82,13.82,0,0,0,.1-1.75V22.5a3.68,3.68,0,0,1,0-.86.93.93,0,0,0,.06-.57,1.29,1.29,0,0,1,0-.57,1.43,1.43,0,0,1,1.24-1.18,21.72,21.72,0,0,1,2.19-.1h6.49q1.29,0,2.29-.06A1.38,1.38,0,0,0,633,18a2,2,0,0,0,.1-.79v-4a2.4,2.4,0,0,0-.06-.57Z" transform="translate(0.03 0)"/><path d="M676.83,11.2A1.89,1.89,0,0,0,676,11h-4.56q-.89,0-2.13-.06a3.53,3.53,0,0,0-1.81.25A3.05,3.05,0,0,0,666,12.63q-.57,1.08-1.08,1.91-1.34,2.22-2.61,4.42t-2.61,4.36a17.09,17.09,0,0,0-1,1.78,17.08,17.08,0,0,1-1,1.78q-.19.26-.51.64a.8.8,0,0,1-.76.32,1.36,1.36,0,0,1-1-.73q-.32-.6-.64-1.11a24.33,24.33,0,0,1-1.59-2.57q-.7-1.31-1.53-2.58-1.08-1.72-2-3.43t-2-3.43a15,15,0,0,1-.92-1.53,2.6,2.6,0,0,0-1.18-1.21,3,3,0,0,0-1.34-.25H637a.35.35,0,0,1-.28,0,.36.36,0,0,0-.25,0,3.16,3.16,0,0,0-.48.16.7.7,0,0,0-.35.35,1,1,0,0,0,.1,1,9.28,9.28,0,0,0,.54.86q.7,1.27,1.4,2.45l1.46,2.45q1.6,2.61,3.12,5.22t3.18,5.22a9.63,9.63,0,0,1,.89,1.49,9.5,9.5,0,0,0,.89,1.49q.64,1,1.21,2l1.14,2a13.48,13.48,0,0,1,1,1.46,7,7,0,0,1,.7,1.72,2,2,0,0,1,.13.73v14a9.1,9.1,0,0,1,.06,1.21,1.35,1.35,0,0,0,.32.89,1.29,1.29,0,0,0,.89.45,11.51,11.51,0,0,0,1.27.06h5.63a1.75,1.75,0,0,0,1-.25,1.91,1.91,0,0,0,.73-1.84V40.78a1.4,1.4,0,0,1,.06-.45,2,2,0,0,0,0-.6,1.92,1.92,0,0,1,0-.6,6.71,6.71,0,0,1,.67-1.59q.41-.7.92-1.4L664.24,34q.6-1.07,1.3-2.07,2.1-3.44,4.1-6.87l4-6.85,1.49-2.51,1.49-2.51a6.69,6.69,0,0,0,.45-1A.73.73,0,0,0,676.83,11.2Z" transform="translate(0.03 0)"/><path d="M327.71,18.68a3.61,3.61,0,1,0,3.6,3.61h0A3.6,3.6,0,0,0,327.71,18.68Z" transform="translate(0.03 0)"/><path d="M329.86.07A33.12,33.12,0,1,0,360.76,31,33.13,33.13,0,0,0,329.86.07Zm-2.15,58.48c-1.72,0-5.41-8.25,0-8.25S329.43,58.55,327.71,58.55Zm9.89-7.87c-1.89,4.92-3.19,2-3.73.73a12.18,12.18,0,0,0-2.36-4.2v1c0,1.23-.61,1.7-1.22,1.7h-5.16c-.61,0-1.22-.48-1.22-1.7v-1a12.19,12.19,0,0,0-2.36,4.2c-.53,1.27-1.84,4.19-3.73-.73-3.18-8.35-4.18-11.48,2.21-16A39.86,39.86,0,0,1,320.64,19c1.12-4.36,4.86-11.36,7-11.36s5.92,7,7,11.36a39.86,39.86,0,0,1,.64,15.74C341.81,39.2,340.81,42.33,337.6,50.68Z" transform="translate(0.03 0)"/></svg>